<svg width="92" height="32" viewBox="0 0 92 32" fill="none" xmlns="http://www.w3.org/2000/svg">
<mask id="path-1-outside-1_98_887" maskUnits="userSpaceOnUse" x="0" y="0" width="92" height="32" fill="black">
<rect fill="white" width="92" height="32"/>
<path d="M2.96548 5.18375C5.62544 3.75779 8.27169 3.04481 10.9042 3.04481C13.5642 3.04481 15.5797 3.71666 16.9508 5.06035C18.322 6.40404 19.0075 8.30989 19.0075 10.7779C19.0075 13.2185 18.5688 15.2203 17.6912 16.7834C16.8412 18.3464 15.2644 20.458 12.9609 23.1179H19.0898V29H3.99381L3.66475 24.8044C6.26986 22.0347 8.12087 19.9369 9.21776 18.511C10.3147 17.085 11.0551 15.9059 11.439 14.9735C11.8229 14.0411 12.0148 13.1773 12.0148 12.3821C12.0148 11.5594 11.8092 10.9287 11.3978 10.49C11.0139 10.0512 10.5066 9.83183 9.87589 9.83183C9.24518 9.83183 8.64189 9.91409 8.06602 10.0786C7.27078 10.2706 6.00935 10.7642 4.28175 11.5594L2.96548 5.18375ZM32.5439 6.66455L32.3794 12.6289C32.3794 12.9854 32.4754 13.2322 32.6673 13.3693C32.8593 13.5064 33.1747 13.575 33.6134 13.575L33.1609 17.0302C32.3383 17.1124 31.7213 17.1536 31.3099 17.1536C29.884 17.1536 28.979 16.66 28.5951 15.6728H28.4717C27.7862 16.66 26.7853 17.1536 25.469 17.1536C22.9461 17.1536 21.6847 15.7962 21.6847 13.0814C21.6847 11.4909 22.1783 10.394 23.1655 9.79069C24.1527 9.15998 25.7158 8.74865 27.8547 8.55669V7.85742C27.8547 7.30898 27.5805 7.03475 27.0321 7.03475C26.0174 7.03475 24.5778 7.32269 22.7131 7.89856L21.9727 3.66181C24.5503 3.0311 26.6207 2.71574 28.1838 2.71574C29.7743 2.71574 30.8986 3.0311 31.5567 3.66181C32.2149 4.29252 32.5439 5.29344 32.5439 6.66455ZM26.9909 13.7806C27.6765 13.7806 28.0193 13.4104 28.0193 12.67V11.2715C27.3337 11.3538 26.8401 11.5046 26.5385 11.724C26.2368 11.9159 26.086 12.245 26.086 12.7112C26.086 13.4241 26.3876 13.7806 26.9909 13.7806ZM62.0302 9.29709L57.8346 29H48.1271L43.8903 9.29709H51.1298L52.8986 21.9251H53.4333L55.3254 9.29709H62.0302ZM70.2324 29H63.4454V9.50276H70.2324V29ZM63.9802 7.93969C63.4043 7.44609 63.1164 6.65084 63.1164 5.55395C63.1164 4.45706 63.4043 3.6481 63.9802 3.12708C64.556 2.60606 65.5021 2.34554 66.8184 2.34554C68.1346 2.34554 69.0807 2.60606 69.6566 3.12708C70.2324 3.6481 70.5204 4.45706 70.5204 5.55395C70.5204 6.62342 70.2324 7.41867 69.6566 7.93969C69.0807 8.43329 68.1346 8.68009 66.8184 8.68009C65.5021 8.68009 64.556 8.43329 63.9802 7.93969ZM87.6904 14.4388L87.4847 22.9534C87.4847 23.4744 87.6081 23.8309 87.8549 24.0229C88.1291 24.1874 88.5816 24.2697 89.2123 24.2697L88.5953 29.2468C87.0048 29.3565 86.1273 29.4113 85.9628 29.4113C83.9335 29.4113 82.6447 28.7121 82.0962 27.3135H81.8905C80.8759 28.7121 79.3129 29.4113 77.2013 29.4113C75.5834 29.4113 74.3357 28.8903 73.4582 27.8483C72.6081 26.8062 72.1831 25.3803 72.1831 23.5704C72.1831 21.2943 72.8823 19.7176 74.2809 18.84C75.7068 17.9625 77.9417 17.3867 80.9856 17.1124V16.1252C80.9856 15.3574 80.6017 14.9735 79.8339 14.9735C78.5176 14.9735 76.4609 15.3711 73.6639 16.1664L72.6355 10.1609C76.1456 9.25596 79.0661 8.80349 81.3969 8.80349C83.7278 8.80349 85.3595 9.25596 86.2918 10.1609C87.2242 11.0658 87.6904 12.4918 87.6904 14.4388ZM79.7516 24.5987C80.7662 24.5987 81.2735 24.064 81.2735 22.9945V20.979C80.2589 21.1161 79.5322 21.3355 79.0935 21.6371C78.6821 21.9113 78.4765 22.3912 78.4765 23.0768C78.4765 24.0914 78.9015 24.5987 79.7516 24.5987Z"/>
</mask>
<path d="M2.96548 5.18375L2.02053 3.42106L0.704989 4.1263L1.00679 5.58812L2.96548 5.18375ZM16.9508 5.06035L15.551 6.48877V6.48878L16.9508 5.06035ZM17.6912 16.7834L15.9473 15.8043L15.9407 15.816L15.9343 15.8278L17.6912 16.7834ZM12.9609 23.1179L11.449 21.8087L8.58325 25.1179H12.9609V23.1179ZM19.0898 23.1179H21.0898V21.1179H19.0898V23.1179ZM19.0898 29V31H21.0898V29H19.0898ZM3.99381 29L1.99994 29.1564L2.14454 31H3.99381V29ZM3.66475 24.8044L2.20792 23.4341L1.60168 24.0786L1.67087 24.9608L3.66475 24.8044ZM9.21776 18.511L7.63251 17.2916L9.21776 18.511ZM11.439 14.9735L13.2883 15.735V15.735L11.439 14.9735ZM11.3978 10.49L9.89268 11.807L9.91528 11.8328L9.93876 11.8578L11.3978 10.49ZM8.06602 10.0786L8.5353 12.0228L8.5756 12.0131L8.61547 12.0017L8.06602 10.0786ZM4.28175 11.5594L2.32306 11.9638L2.8319 14.4285L5.11804 13.3762L4.28175 11.5594ZM3.91043 6.94644C6.32271 5.65325 8.64692 5.04481 10.9042 5.04481V1.04481C7.89646 1.04481 4.92817 1.86233 2.02053 3.42106L3.91043 6.94644ZM10.9042 5.04481C13.2457 5.04481 14.6782 5.63349 15.551 6.48877L18.3507 3.63192C16.4812 1.79982 13.8826 1.04481 10.9042 1.04481V5.04481ZM15.551 6.48878C16.4367 7.35679 17.0075 8.68622 17.0075 10.7779H21.0075C21.0075 7.93356 20.2072 5.45129 18.3507 3.63192L15.551 6.48878ZM17.0075 10.7779C17.0075 12.9943 16.6071 14.629 15.9473 15.8043L19.4352 17.7624C20.5304 15.8116 21.0075 13.4427 21.0075 10.7779H17.0075ZM15.9343 15.8278C15.191 17.1946 13.7309 19.1736 11.449 21.8087L14.4728 24.4272C16.7979 21.7423 18.4914 19.4983 19.4482 17.7389L15.9343 15.8278ZM12.9609 25.1179H19.0898V21.1179H12.9609V25.1179ZM17.0898 23.1179V29H21.0898V23.1179H17.0898ZM19.0898 27H3.99381V31H19.0898V27ZM5.98769 28.8436L5.65862 24.648L1.67087 24.9608L1.99994 29.1564L5.98769 28.8436ZM5.12157 26.1747C7.73372 23.3975 9.64212 21.2396 10.803 19.7304L7.63251 17.2916C6.59962 18.6343 4.80601 20.6719 2.20792 23.4341L5.12157 26.1747ZM10.803 19.7304C11.9376 18.2554 12.804 16.9112 13.2883 15.735L9.58961 14.212C9.30611 14.9005 8.69171 15.9146 7.63251 17.2916L10.803 19.7304ZM13.2883 15.735C13.7461 14.6233 14.0148 13.4983 14.0148 12.3821H10.0148C10.0148 12.8563 9.89966 13.459 9.58961 14.212L13.2883 15.735ZM14.0148 12.3821C14.0148 11.2408 13.7267 10.0499 12.8569 9.12208L9.93876 11.8578C9.89163 11.8076 10.0148 11.8781 10.0148 12.3821H14.0148ZM12.903 9.17295C12.1056 8.26164 11.0301 7.83183 9.87589 7.83183V11.8318C9.91758 11.8318 9.94013 11.8354 9.94722 11.8368C9.9537 11.8381 9.9484 11.8376 9.93559 11.8321C9.92955 11.8295 9.92296 11.8262 9.91623 11.8223C9.90949 11.8184 9.90357 11.8145 9.89867 11.8109C9.88828 11.8032 9.88661 11.8 9.89268 11.807L12.903 9.17295ZM9.87589 7.83183C9.06923 7.83183 8.28039 7.93735 7.51658 8.15558L8.61547 12.0017C9.00339 11.8908 9.42114 11.8318 9.87589 11.8318V7.83183ZM7.59674 8.13446C6.59427 8.37644 5.17758 8.94534 3.44546 9.74267L5.11804 13.3762C6.84112 12.583 7.94728 12.1647 8.5353 12.0228L7.59674 8.13446ZM6.24044 11.1551L4.92417 4.77937L1.00679 5.58812L2.32306 11.9638L6.24044 11.1551ZM32.5439 6.66455L34.5432 6.7197L34.5439 6.69213V6.66455H32.5439ZM32.3794 12.6289L30.3802 12.5737L30.3794 12.6013V12.6289H32.3794ZM33.6134 13.575L35.5965 13.8347L35.8924 11.575H33.6134V13.575ZM33.1609 17.0302L33.36 19.0202L34.9381 18.8624L35.144 17.2899L33.1609 17.0302ZM28.5951 15.6728L30.4591 14.9479L29.9633 13.6728H28.5951V15.6728ZM28.4717 15.6728V13.6728H27.4257L26.829 14.532L28.4717 15.6728ZM23.1655 9.79069L24.2084 11.4973L24.2255 11.4868L24.2423 11.4761L23.1655 9.79069ZM27.8547 8.55669L28.0335 10.5487L29.8547 10.3852V8.55669H27.8547ZM22.7131 7.89856L20.7429 8.24285L21.1338 10.4795L23.3032 9.8095L22.7131 7.89856ZM21.9727 3.66181L21.4973 1.71912L19.6805 2.16365L20.0025 4.00611L21.9727 3.66181ZM31.5567 3.66181L32.9406 2.21784V2.21783L31.5567 3.66181ZM28.0193 11.2715H30.0193V9.01715L27.781 9.28574L28.0193 11.2715ZM26.5385 11.724L27.6122 13.4113L27.6646 13.378L27.7148 13.3414L26.5385 11.724ZM30.5447 6.6094L30.3802 12.5737L34.3786 12.684L34.5432 6.7197L30.5447 6.6094ZM30.3794 12.6289C30.3794 13.2871 30.5589 14.321 31.5049 14.9968L33.8298 11.7418C34.0884 11.9265 34.2402 12.1631 34.3154 12.3565C34.3501 12.4457 34.3655 12.5173 34.3726 12.5615C34.3761 12.584 34.3778 12.6011 34.3786 12.612C34.3794 12.6229 34.3794 12.6288 34.3794 12.6289H30.3794ZM31.5049 14.9968C32.2218 15.5089 33.0667 15.575 33.6134 15.575V11.575C33.4896 11.575 33.4511 11.5645 33.4727 11.5692C33.4862 11.5721 33.5267 11.5818 33.5859 11.6058C33.6452 11.6299 33.7317 11.6717 33.8298 11.7418L31.5049 14.9968ZM31.6303 13.3153L31.1779 16.7705L35.144 17.2899L35.5965 13.8347L31.6303 13.3153ZM32.9619 15.0401C32.1535 15.1209 31.6176 15.1536 31.3099 15.1536V19.1536C31.8249 19.1536 32.5231 19.1039 33.36 19.0202L32.9619 15.0401ZM31.3099 15.1536C30.8098 15.1536 30.5871 15.0645 30.5195 15.0276C30.5037 15.019 30.4957 15.013 30.4929 15.0107C30.4901 15.0085 30.4895 15.0077 30.4894 15.0076C30.4892 15.0074 30.4867 15.0045 30.4821 14.9969C30.4774 14.989 30.4691 14.9736 30.4591 14.9479L26.7311 16.3977C27.089 17.3178 27.725 18.0597 28.6041 18.5392C29.4414 18.9959 30.3842 19.1536 31.3099 19.1536V15.1536ZM28.5951 13.6728H28.4717V17.6728H28.5951V13.6728ZM26.829 14.532C26.557 14.9236 26.2031 15.1536 25.469 15.1536V19.1536C27.3674 19.1536 29.0153 18.3964 30.1145 16.8136L26.829 14.532ZM25.469 15.1536C24.555 15.1536 24.2264 14.9146 24.0958 14.7741C23.9396 14.6059 23.6847 14.1654 23.6847 13.0814H19.6847C19.6847 14.7121 20.0606 16.3078 21.1657 17.497C22.2966 18.7139 23.8601 19.1536 25.469 19.1536V15.1536ZM23.6847 13.0814C23.6847 11.8969 24.0276 11.6078 24.2084 11.4973L22.1226 8.08413C20.329 9.18021 19.6847 11.0849 19.6847 13.0814H23.6847ZM24.2423 11.4761C24.8177 11.1084 25.9896 10.7321 28.0335 10.5487L27.676 6.5647C25.442 6.76518 23.4877 7.21151 22.0887 8.1053L24.2423 11.4761ZM29.8547 8.55669V7.85742H25.8547V8.55669H29.8547ZM29.8547 7.85742C29.8547 7.27491 29.7077 6.47068 29.0633 5.82621C28.4188 5.18174 27.6146 5.03475 27.0321 5.03475V9.03475C26.998 9.03475 26.6051 9.02488 26.2348 8.65463C25.8646 8.28438 25.8547 7.89149 25.8547 7.85742H29.8547ZM27.0321 5.03475C25.7092 5.03475 24.0367 5.39657 22.1229 5.98761L23.3032 9.8095C25.1188 9.2488 26.3256 9.03475 27.0321 9.03475V5.03475ZM24.6832 7.55426L23.9428 3.31752L20.0025 4.00611L20.7429 8.24285L24.6832 7.55426ZM22.448 5.6045C24.9619 4.98939 26.8538 4.71574 28.1838 4.71574V0.715743C26.3877 0.715743 24.1388 1.07281 21.4973 1.71912L22.448 5.6045ZM28.1838 4.71574C29.6122 4.71574 30.0816 5.01826 30.1729 5.10579L32.9406 2.21783C31.7156 1.04393 29.9364 0.715743 28.1838 0.715743V4.71574ZM30.1729 5.10579C30.2763 5.20482 30.5439 5.56553 30.5439 6.66455H34.5439C34.5439 5.02135 34.1535 3.38023 32.9406 2.21784L30.1729 5.10579ZM26.9909 15.7806C27.6832 15.7806 28.5586 15.5865 29.2297 14.8618C29.8739 14.1661 30.0193 13.3119 30.0193 12.67H26.0193C26.0193 12.7685 25.9933 12.4697 26.2947 12.1442C26.6229 11.7896 26.9842 11.7806 26.9909 11.7806V15.7806ZM30.0193 12.67V11.2715H26.0193V12.67H30.0193ZM27.781 9.28574C27 9.37946 26.0868 9.57942 25.3621 10.1065L27.7148 13.3414C27.6318 13.4018 27.6095 13.3926 27.7193 13.359C27.8227 13.3274 27.9955 13.2887 28.2576 13.2572L27.781 9.28574ZM25.4647 10.0366C24.4131 10.7059 24.086 11.7953 24.086 12.7112H28.086C28.086 12.6861 28.0909 12.7873 28.0172 12.948C27.9341 13.1294 27.7909 13.2976 27.6122 13.4113L25.4647 10.0366ZM24.086 12.7112C24.086 13.3019 24.2039 14.1179 24.7855 14.8052C25.4211 15.5564 26.2853 15.7806 26.9909 15.7806V11.7806C27.0932 11.7806 27.505 11.8266 27.839 12.2214C28.1189 12.5521 28.086 12.8334 28.086 12.7112H24.086ZM62.0302 9.29709L63.9863 9.71364L64.5009 7.29709H62.0302V9.29709ZM57.8346 29V31H59.4535L59.7907 29.4165L57.8346 29ZM48.1271 29L46.1718 29.4205L46.5114 31H48.1271V29ZM43.8903 9.29709V7.29709H41.4146L41.935 9.71754L43.8903 9.29709ZM51.1298 9.29709L53.1105 9.01967L52.8692 7.29709H51.1298V9.29709ZM52.8986 21.9251L50.9179 22.2025L51.1592 23.9251H52.8986V21.9251ZM53.4333 21.9251V23.9251H55.1559L55.4112 22.2214L53.4333 21.9251ZM55.3254 9.29709V7.29709H53.6028L53.3475 9.00072L55.3254 9.29709ZM60.074 8.88054L55.8784 28.5835L59.7907 29.4165L63.9863 9.71364L60.074 8.88054ZM57.8346 27H48.1271V31H57.8346V27ZM50.0824 28.5795L45.8456 8.87664L41.935 9.71754L46.1718 29.4205L50.0824 28.5795ZM43.8903 11.2971H51.1298V7.29709H43.8903V11.2971ZM49.1492 9.57451L50.9179 22.2025L54.8792 21.6476L53.1105 9.01967L49.1492 9.57451ZM52.8986 23.9251H53.4333V19.9251H52.8986V23.9251ZM55.4112 22.2214L57.3033 9.59346L53.3475 9.00072L51.4554 21.6287L55.4112 22.2214ZM55.3254 11.2971H62.0302V7.29709H55.3254V11.2971ZM70.2324 29V31H72.2324V29H70.2324ZM63.4454 29H61.4454V31H63.4454V29ZM63.4454 9.50276V7.50276H61.4454V9.50276H63.4454ZM70.2324 9.50276H72.2324V7.50276H70.2324V9.50276ZM69.6566 3.12708L68.3147 4.61015L68.3148 4.61015L69.6566 3.12708ZM69.6566 7.93969L70.9582 9.4582L70.9785 9.44075L70.9984 9.42276L69.6566 7.93969ZM70.2324 27H63.4454V31H70.2324V27ZM65.4454 29V9.50276H61.4454V29H65.4454ZM63.4454 11.5028H70.2324V7.50276H63.4454V11.5028ZM68.2324 9.50276V29H72.2324V9.50276H68.2324ZM65.2817 6.42118C65.2787 6.41853 65.2729 6.41332 65.2636 6.39945C65.2537 6.38463 65.2345 6.35203 65.2128 6.29217C65.1675 6.16685 65.1164 5.93558 65.1164 5.55395H61.1164C61.1164 6.96696 61.4901 8.43948 62.6786 9.4582L65.2817 6.42118ZM65.1164 5.55395C65.1164 4.78264 65.3149 4.61657 65.322 4.61015L62.6383 1.64401C61.4937 2.67964 61.1164 4.13148 61.1164 5.55395H65.1164ZM65.322 4.61015C65.3476 4.58698 65.6792 4.34554 66.8184 4.34554V0.345544C65.325 0.345544 63.7645 0.625128 62.6383 1.64401L65.322 4.61015ZM66.8184 4.34554C67.9576 4.34554 68.2891 4.58698 68.3147 4.61015L70.9984 1.64401C69.8723 0.625128 68.3117 0.345544 66.8184 0.345544V4.34554ZM68.3148 4.61015C68.3218 4.61657 68.5204 4.78264 68.5204 5.55395H72.5204C72.5204 4.13148 72.143 2.67964 70.9984 1.64401L68.3148 4.61015ZM68.5204 5.55395C68.5204 6.27942 68.3316 6.44134 68.3148 6.45662L70.9984 9.42276C72.1332 8.39599 72.5204 6.96742 72.5204 5.55395H68.5204ZM68.355 6.42118C68.3266 6.4455 67.9763 6.68009 66.8184 6.68009V10.6801C68.2929 10.6801 69.8348 10.4211 70.9582 9.4582L68.355 6.42118ZM66.8184 6.68009C65.6604 6.68009 65.3101 6.4455 65.2817 6.42118L62.6786 9.4582C63.8019 10.4211 65.3438 10.6801 66.8184 10.6801V6.68009ZM87.6904 14.4388L89.6898 14.4871L89.6904 14.4629V14.4388H87.6904ZM87.4847 22.9534L85.4853 22.9051L85.4847 22.9292V22.9534H87.4847ZM87.8549 24.0229L86.627 25.6016L86.7223 25.6757L86.8259 25.7378L87.8549 24.0229ZM89.2123 24.2697L91.1971 24.5157L91.4755 22.2697H89.2123V24.2697ZM88.5953 29.2468L88.7329 31.2421L90.3773 31.1287L90.5801 29.4929L88.5953 29.2468ZM82.0962 27.3135L83.9582 26.5834L83.4602 25.3135H82.0962V27.3135ZM81.8905 27.3135V25.3135H80.8706L80.2717 26.1391L81.8905 27.3135ZM73.4582 27.8483L71.9085 29.1125L71.9183 29.1246L71.9284 29.1365L73.4582 27.8483ZM74.2809 18.84L73.2327 17.1367L73.2253 17.1413L73.2179 17.1459L74.2809 18.84ZM80.9856 17.1124L81.1651 19.1044L82.9856 18.9404V17.1124H80.9856ZM73.6639 16.1664L71.6926 16.5039L72.0685 18.6992L74.2108 18.0901L73.6639 16.1664ZM72.6355 10.1609L72.1362 8.22422L70.3535 8.68383L70.6642 10.4984L72.6355 10.1609ZM86.2918 10.1609L87.6848 8.72573V8.72573L86.2918 10.1609ZM81.2735 20.979H83.2735V18.6905L81.0057 18.997L81.2735 20.979ZM79.0935 21.6371L80.2029 23.3012L80.2148 23.2933L80.2265 23.2852L79.0935 21.6371ZM85.6909 14.3905L85.4853 22.9051L89.4841 23.0017L89.6898 14.4871L85.6909 14.3905ZM85.4847 22.9534C85.4847 23.6866 85.6441 24.8371 86.627 25.6016L89.0828 22.4442C89.3229 22.6309 89.4287 22.8462 89.4672 22.9573C89.5003 23.0527 89.4847 23.0698 89.4847 22.9534H85.4847ZM86.8259 25.7378C87.5901 26.1964 88.5095 26.2697 89.2123 26.2697V22.2697C88.9762 22.2697 88.8316 22.2537 88.7577 22.2402C88.723 22.2339 88.7187 22.2308 88.7371 22.2371C88.7551 22.2432 88.8092 22.2631 88.8839 22.3079L86.8259 25.7378ZM87.2275 24.0236L86.6105 29.0007L90.5801 29.4929L91.1971 24.5157L87.2275 24.0236ZM88.4577 27.2515C87.6639 27.3063 87.0519 27.3471 86.6195 27.3741C86.4029 27.3876 86.2355 27.3975 86.1147 27.4038C85.9735 27.4112 85.9418 27.4113 85.9628 27.4113V31.4113C86.2175 31.4113 87.2014 31.3477 88.7329 31.2421L88.4577 27.2515ZM85.9628 27.4113C85.1599 27.4113 84.6888 27.2705 84.428 27.129C84.2089 27.0101 84.0649 26.8554 83.9582 26.5834L80.2343 28.0437C80.676 29.1702 81.4506 30.0644 82.5204 30.6448C83.5484 31.2026 84.7364 31.4113 85.9628 31.4113V27.4113ZM82.0962 25.3135H81.8905V29.3135H82.0962V25.3135ZM80.2717 26.1391C79.7183 26.9019 78.8321 27.4113 77.2013 27.4113V31.4113C79.7936 31.4113 82.0335 30.5223 83.5094 28.488L80.2717 26.1391ZM77.2013 27.4113C76.0511 27.4113 75.4132 27.0649 74.988 26.56L71.9284 29.1365C73.2582 30.7157 75.1158 31.4113 77.2013 31.4113V27.4113ZM75.0079 26.584C74.536 26.0055 74.1831 25.0789 74.1831 23.5704H70.1831C70.1831 25.6816 70.6802 27.607 71.9085 29.1125L75.0079 26.584ZM74.1831 23.5704C74.1831 21.6942 74.7367 20.9151 75.3438 20.5342L73.2179 17.1459C71.0279 18.52 70.1831 20.8945 70.1831 23.5704H74.1831ZM75.3291 20.5434C76.3551 19.9119 78.215 19.3701 81.1651 19.1044L80.8062 15.1205C77.6685 15.4032 75.0585 16.0131 73.2327 17.1367L75.3291 20.5434ZM82.9856 17.1124V16.1252H78.9856V17.1124H82.9856ZM82.9856 16.1252C82.9856 15.433 82.8112 14.5465 82.1119 13.8472C81.4126 13.1479 80.5261 12.9735 79.8339 12.9735V16.9735C79.9095 16.9735 79.5989 16.9911 79.2835 16.6757C78.9681 16.3602 78.9856 16.0496 78.9856 16.1252H82.9856ZM79.8339 12.9735C78.218 12.9735 75.9305 13.4427 73.1169 14.2426L74.2108 18.0901C76.9914 17.2996 78.8172 16.9735 79.8339 16.9735V12.9735ZM75.6352 15.8288L74.6068 9.82334L70.6642 10.4984L71.6926 16.5039L75.6352 15.8288ZM73.1348 12.0976C76.5613 11.2142 79.3005 10.8035 81.3969 10.8035V6.80349C78.8316 6.80349 75.7299 7.29773 72.1362 8.22422L73.1348 12.0976ZM81.3969 10.8035C83.5838 10.8035 84.5426 11.2503 84.8989 11.5961L87.6848 8.72573C86.1763 7.26163 83.8719 6.80349 81.3969 6.80349V10.8035ZM84.8989 11.5961C85.2859 11.9717 85.6904 12.7648 85.6904 14.4388H89.6904C89.6904 12.2187 89.1625 10.16 87.6848 8.72573L84.8989 11.5961ZM79.7516 26.5987C80.5949 26.5987 81.5877 26.3713 82.344 25.5742C83.0815 24.7968 83.2735 23.812 83.2735 22.9945H79.2735C79.2735 23.2465 79.2119 23.0638 79.4421 22.8212C79.5538 22.7035 79.6741 22.6398 79.7545 22.6115C79.8242 22.5871 79.8352 22.5987 79.7516 22.5987V26.5987ZM83.2735 22.9945V20.979H79.2735V22.9945H83.2735ZM81.0057 18.997C79.9165 19.1442 78.8002 19.4117 77.9604 19.989L80.2265 23.2852C80.2203 23.2895 80.3031 23.2342 80.5456 23.161C80.7794 23.0904 81.1054 23.0199 81.5414 22.961L81.0057 18.997ZM77.9841 19.973C76.8165 20.7514 76.4765 22.005 76.4765 23.0768H80.4765C80.4765 22.9242 80.5006 22.9167 80.469 22.9905C80.4518 23.0306 80.4213 23.0869 80.3715 23.1478C80.3211 23.2094 80.2627 23.2614 80.2029 23.3012L77.9841 19.973ZM76.4765 23.0768C76.4765 23.8146 76.6236 24.7405 77.2622 25.5027C77.9576 26.3326 78.9162 26.5987 79.7516 26.5987V22.5987C79.7338 22.5987 79.8084 22.5957 79.9331 22.6453C80.07 22.6997 80.2137 22.797 80.3283 22.9338C80.5418 23.1887 80.4765 23.3536 80.4765 23.0768H76.4765Z" fill="#46494C" mask="url(#path-1-outside-1_98_887)"/>
</svg>
