<svg width="21" height="16" viewBox="0 0 21 16" fill="none" xmlns="http://www.w3.org/2000/svg">
<path d="M10.6326 8.64502L3.99194 15.2856C3.53296 15.7446 2.79077 15.7446 2.33667 15.2856L1.23315 14.1821C0.77417 13.7231 0.77417 12.981 1.23315 12.5269L5.94019 7.81982L1.23315 3.11279C0.77417 2.65381 0.77417 1.91162 1.23315 1.45752L2.33179 0.344238C2.79077 -0.114746 3.53296 -0.114746 3.98706 0.344238L10.6277 6.98486C11.0916 7.44385 11.0916 8.18604 10.6326 8.64502ZM20.0076 6.98486L13.3669 0.344238C12.908 -0.114746 12.1658 -0.114746 11.7117 0.344238L10.6082 1.44775C10.1492 1.90674 10.1492 2.64893 10.6082 3.10303L15.3152 7.81006L10.6082 12.5171C10.1492 12.9761 10.1492 13.7183 10.6082 14.1724L11.7117 15.2759C12.1707 15.7349 12.9128 15.7349 13.3669 15.2759L20.0076 8.63525C20.4666 8.18604 20.4666 7.44385 20.0076 6.98486Z" fill="black"/>
</svg>
