<svg width="21" height="16" viewBox="0 0 21 16" fill="none" xmlns="http://www.w3.org/2000/svg">
<path d="M10.6075 6.98486L17.2482 0.344238C17.7072 -0.114746 18.4493 -0.114746 18.9034 0.344238L20.007 1.44775C20.4659 1.90674 20.4659 2.64893 20.007 3.10303L15.3048 7.81494L20.0118 12.522C20.4708 12.981 20.4708 13.7231 20.0118 14.1772L18.9083 15.2856C18.4493 15.7446 17.7072 15.7446 17.2531 15.2856L10.6124 8.64502C10.1486 8.18604 10.1486 7.44385 10.6075 6.98486ZM1.23255 8.64502L7.87317 15.2856C8.33216 15.7446 9.07434 15.7446 9.52845 15.2856L10.632 14.1821C11.0909 13.7231 11.0909 12.981 10.632 12.5269L5.92981 7.81494L10.6368 3.10791C11.0958 2.64893 11.0958 1.90674 10.6368 1.45264L9.53333 0.344238C9.07434 -0.114746 8.33216 -0.114746 7.87805 0.344238L1.23743 6.98486C0.773562 7.44385 0.773562 8.18604 1.23255 8.64502Z" fill="black"/>
</svg>
