<svg width="73" height="73" viewBox="0 0 73 73" fill="none" xmlns="http://www.w3.org/2000/svg">
<path d="M15.209 11.125C15.209 10.0204 16.1044 9.125 17.209 9.125H36.2507C36.3887 9.125 36.5007 9.23693 36.5007 9.375V28.4167C36.5007 29.5212 37.3961 30.4167 38.5007 30.4167H57.5423C57.6804 30.4167 57.7923 30.5286 57.7923 30.6667V61.875C57.7923 62.9796 56.8969 63.875 55.7923 63.875H17.209C16.1044 63.875 15.209 62.9796 15.209 61.875V11.125Z" fill="#7E869E" fill-opacity="0.25"/>
<path d="M39.541 26.375V9.72855C39.541 9.50583 39.8103 9.39429 39.9678 9.55178L57.3642 26.9482C57.5217 27.1057 57.4102 27.375 57.1875 27.375H40.541C39.9887 27.375 39.541 26.9273 39.541 26.375Z" fill="#222222"/>
<path d="M47.1523 36.2814L26.6664 56.7674" stroke="#222222" stroke-linecap="round"/>
<path d="M26.6641 36.2814L47.15 56.7674" stroke="#222222" stroke-linecap="round"/>
</svg>
