<svg width="83" height="70" viewBox="0 0 83 70" fill="none" xmlns="http://www.w3.org/2000/svg">
<path d="M40.0359 34.3227L40.038 34.3238C41.6758 35.166 42.3638 37.2671 41.5432 38.9813C40.7033 40.6941 38.7182 41.352 37.1104 40.5199L33.9939 38.9069C33.9939 38.9069 33.9938 38.9069 33.9938 38.9068C32.2085 37.9824 30.8431 36.3598 30.2068 34.3845L30.2057 34.3813L29.4701 32.1257L28.4686 29.0555L27.7002 32.1922L25.3995 41.5834L25.284 42.0551L25.608 42.4169L31.6941 49.2108L31.6967 49.2136C32.5532 50.162 33.1657 51.336 33.4787 52.6024C33.4788 52.6029 33.479 52.6033 33.4791 52.6038L36.4479 64.7675L36.4484 64.7692C36.9058 66.6284 35.7832 68.5021 33.9967 68.9612C32.2261 69.4162 30.3884 68.3089 29.9303 66.4484C29.9303 66.4483 29.9302 66.4481 29.9302 66.448L27.4828 56.4294L27.4822 56.4271C27.0987 54.8747 26.3461 53.4412 25.2824 52.2485L25.2809 52.2468L17.27 43.3082C17.2698 43.3079 17.2695 43.3077 17.2693 43.3074C15.5334 41.3615 14.8605 38.6524 15.4844 36.1022L17.5175 27.805L17.949 26.0439L16.2724 26.7343L12.6878 28.2106C12.6877 28.2106 12.6877 28.2107 12.6876 28.2107C11.5036 28.6981 10.5649 29.6164 10.0041 30.7626L10.0017 30.7674L9.10789 32.6217C9.10751 32.6225 9.10713 32.6233 9.10674 32.6241C8.26698 34.3374 6.28161 34.9956 4.67348 34.1634L4.67135 34.1623C3.03151 33.319 2.34614 31.2436 3.18001 29.5174L3.18034 29.5167L4.07571 27.6593C4.07586 27.659 4.07601 27.6587 4.07616 27.6584C5.37159 24.9857 7.57195 22.8942 10.2454 21.7938L10.2461 21.7935C10.8488 21.5448 11.4148 21.3073 11.952 21.0819C15.9267 19.4141 18.3272 18.4068 22.3721 18.4183L22.3727 18.4183C28.1606 18.431 33.3144 22.406 35.1687 28.1555L35.1687 28.1558L36.4662 32.1747L36.5827 32.5354L36.9193 32.7096L40.0359 34.3227ZM12.8485 47.6084C13.2523 48.0733 14.0228 48.9309 15.5885 50.6735C16.217 51.3731 16.9738 52.2154 17.8864 53.2321L16.2893 57.3185C16.289 57.3195 16.2886 57.3204 16.2882 57.3214C15.8902 58.3188 15.3141 59.2116 14.5872 59.9545L6.64179 68.0744C5.33095 69.4141 3.22302 69.4141 1.91218 68.0744C0.590407 66.7236 0.590407 64.5208 1.91218 63.17L1.91282 63.1694L8.59494 56.3267C8.59599 56.3257 8.59703 56.3246 8.59808 56.3236C9.51736 55.3984 10.2271 54.2937 10.6994 53.0729C10.6997 53.0721 10.7 53.0712 10.7003 53.0704L12.8485 47.6084ZM33.3184 6.56154C33.3184 9.69445 30.8361 12.2022 27.8188 12.2022C24.8015 12.2022 22.3192 9.69445 22.3192 6.56154C22.3192 3.42863 24.8015 0.92085 27.8188 0.92085C30.8361 0.92085 33.3184 3.42863 33.3184 6.56154Z" stroke="#46494C" stroke-width="1.8417"/>
<mask id="path-2-outside-1_291_93" maskUnits="userSpaceOnUse" x="40.8105" y="12.5675" width="41" height="25" fill="black">
<rect fill="white" x="40.8105" y="12.5675" width="41" height="25"/>
<path d="M48.876 34.8371C47.9235 34.8371 47.0429 34.5945 46.2342 34.1092C45.4434 33.606 44.8054 32.95 44.3202 32.1413C43.8349 31.3326 43.5923 30.443 43.5923 29.4725L43.5654 20.9538C43.5654 19.9654 43.808 19.0578 44.2932 18.2311C44.7785 17.4044 45.4255 16.7484 46.2342 16.2632C47.0429 15.76 47.9235 15.5084 48.876 15.5084C49.8465 15.5084 50.7271 15.76 51.5179 16.2632C52.3266 16.7484 52.9646 17.4044 53.4319 18.2311C53.9171 19.0398 54.1598 19.9474 54.1598 20.9538V21.493C54.1598 21.5649 54.1148 21.6008 54.025 21.6008H51.0057C50.9338 21.6008 50.8979 21.5649 50.8979 21.493V20.9538C50.8979 20.3608 50.7002 19.8575 50.3048 19.4442C49.9274 19.0129 49.4511 18.7972 48.876 18.7972C48.3189 18.7972 47.8427 19.0129 47.4473 19.4442C47.0519 19.8575 46.8542 20.3608 46.8542 20.9538V22.8139C47.5012 22.5443 48.1751 22.4095 48.876 22.4095C49.8465 22.4095 50.7271 22.6522 51.5179 23.1374C52.3266 23.6227 52.9646 24.2786 53.4319 25.1053C53.8992 25.9141 54.1328 26.8127 54.1328 27.8011V29.4725C54.1328 30.443 53.8902 31.3416 53.405 32.1683C52.9377 32.977 52.3087 33.624 51.5179 34.1092C50.7271 34.5945 49.8465 34.8371 48.876 34.8371ZM48.876 31.6022C49.4332 31.6022 49.9004 31.3955 50.2778 30.9821C50.6732 30.5688 50.8709 30.0656 50.8709 29.4725V27.8011C50.8709 27.226 50.6732 26.7318 50.2778 26.3184C49.9004 25.8871 49.4332 25.6714 48.876 25.6714C48.3189 25.6714 47.8427 25.8781 47.4473 26.2915C47.0519 26.7048 46.8542 27.208 46.8542 27.8011V29.4725C46.8542 30.0476 47.0519 30.5508 47.4473 30.9821C47.8427 31.3955 48.3189 31.6022 48.876 31.6022ZM61.6831 34.8371C60.5329 34.8371 59.5175 34.5945 58.6369 34.1092C57.7562 33.606 57.0643 32.95 56.5611 32.1413C56.0759 31.3146 55.8333 30.407 55.8333 29.4186L55.8602 20.873C55.8602 19.8845 56.1028 18.9859 56.5881 18.1772C57.0913 17.3684 57.7832 16.7215 58.6638 16.2362C59.5444 15.751 60.5509 15.5084 61.6831 15.5084C62.8333 15.5084 63.8397 15.751 64.7024 16.2362C65.565 16.7215 66.239 17.3684 66.7242 18.1772C67.2274 18.9859 67.479 19.8845 67.479 20.873L67.506 29.4186C67.506 30.407 67.2544 31.3146 66.7512 32.1413C66.2659 32.95 65.583 33.606 64.7024 34.1092C63.8397 34.5945 62.8333 34.8371 61.6831 34.8371ZM64.2441 29.4186L64.2171 20.873C64.2171 20.2439 63.9835 19.7317 63.5162 19.3364C63.049 18.941 62.4379 18.7433 61.6831 18.7433C60.9103 18.7433 60.2903 18.941 59.823 19.3364C59.3557 19.7317 59.1221 20.2439 59.1221 20.873V29.4186C59.1221 30.0835 59.3557 30.6137 59.823 31.0091C60.2903 31.3865 60.9103 31.5752 61.6831 31.5752C62.4379 31.5752 63.049 31.3865 63.5162 31.0091C64.0015 30.6137 64.2441 30.0835 64.2441 29.4186ZM73.2229 31.1169C73.1331 31.1169 73.0881 31.072 73.0881 30.9821V26.1567H69.2601C69.1523 26.1567 69.0984 26.1118 69.0984 26.0219V23.8922C69.0984 23.8743 69.1074 23.8473 69.1253 23.8114C69.1613 23.7574 69.2062 23.7305 69.2601 23.7305H73.0881V18.8242C73.0881 18.7882 73.1331 18.7703 73.2229 18.7703H75.4874C75.5593 18.7703 75.5952 18.7882 75.5952 18.8242V23.7305H79.6119C79.7018 23.7305 79.7467 23.7844 79.7467 23.8922V26.0219C79.7467 26.0578 79.7287 26.0938 79.6928 26.1297C79.6568 26.1477 79.6299 26.1567 79.6119 26.1567H75.5952V30.9821C75.5952 31.072 75.5593 31.1169 75.4874 31.1169H73.2229Z"/>
</mask>
<path d="M46.2342 34.1092L45.1604 35.7965L45.1826 35.8107L45.2052 35.8242L46.2342 34.1092ZM44.3202 32.1413L42.6052 33.1703L42.6052 33.1703L44.3202 32.1413ZM43.5923 29.4725L45.5923 29.4725L45.5923 29.4662L43.5923 29.4725ZM43.5654 20.9538L41.5654 20.9538L41.5654 20.9602L43.5654 20.9538ZM44.2932 18.2311L46.0181 19.2435L46.0181 19.2435L44.2932 18.2311ZM46.2342 16.2632L47.2632 17.9782L47.277 17.9698L47.2908 17.9613L46.2342 16.2632ZM51.5179 16.2632L50.4442 17.9505L50.4664 17.9646L50.4889 17.9782L51.5179 16.2632ZM53.4319 18.2311L51.6908 19.2152L51.7036 19.2378L51.7169 19.2601L53.4319 18.2311ZM50.3048 19.4442L48.7997 20.7612L48.8289 20.7946L48.8595 20.8266L50.3048 19.4442ZM47.4473 19.4442L48.8926 20.8266L48.9072 20.8113L48.9216 20.7956L47.4473 19.4442ZM46.8542 22.8139H44.8542V25.8139L47.6234 24.6601L46.8542 22.8139ZM51.5179 23.1374L50.4719 24.8421L50.4804 24.8473L50.4889 24.8524L51.5179 23.1374ZM53.4319 25.1053L51.6908 26.0894L51.6954 26.0977L51.7002 26.1059L53.4319 25.1053ZM53.405 32.1683L51.6801 31.1558L51.6732 31.1677L53.405 32.1683ZM51.5179 34.1092L52.5639 35.8139L51.5179 34.1092ZM50.2778 30.9821L48.8326 29.5997L48.8165 29.6164L48.8009 29.6336L50.2778 30.9821ZM50.2778 26.3184L48.7727 27.6354L48.8019 27.6688L48.8326 27.7009L50.2778 26.3184ZM47.4473 26.2915L48.8926 27.6739L47.4473 26.2915ZM47.4473 30.9821L45.973 32.3336L45.9873 32.3492L46.002 32.3646L47.4473 30.9821ZM48.876 32.8371C48.2822 32.8371 47.7578 32.691 47.2632 32.3942L45.2052 35.8242C46.328 36.4979 47.5648 36.8371 48.876 36.8371V32.8371ZM47.3079 32.4219C46.7808 32.0865 46.3617 31.6565 46.0352 31.1123L42.6052 33.1703C43.2491 34.2435 44.106 35.1256 45.1604 35.7965L47.3079 32.4219ZM46.0352 31.1123C45.742 30.6237 45.5923 30.0915 45.5923 29.4725H41.5923C41.5923 30.7944 41.9279 32.0414 42.6052 33.1703L46.0352 31.1123ZM45.5923 29.4662L45.5654 20.9475L41.5654 20.9602L41.5923 29.4788L45.5923 29.4662ZM45.5654 20.9538C45.5654 20.3097 45.7188 19.7534 46.0181 19.2435L42.5684 17.2187C41.8972 18.3622 41.5654 19.621 41.5654 20.9538H45.5654ZM46.0181 19.2435C46.3367 18.7006 46.7464 18.2882 47.2632 17.9782L45.2052 14.5482C44.1045 15.2086 43.2202 16.1082 42.5684 17.2187L46.0181 19.2435ZM47.2908 17.9613C47.7824 17.6554 48.297 17.5084 48.876 17.5084V13.5084C47.5501 13.5084 46.3034 13.8645 45.1776 14.5651L47.2908 17.9613ZM48.876 17.5084C49.4803 17.5084 49.9861 17.659 50.4442 17.9505L52.5917 14.5759C51.4682 13.8609 50.2127 13.5084 48.876 13.5084V17.5084ZM50.4889 17.9782C50.9989 18.2842 51.3925 18.6874 51.6908 19.2152L55.173 17.247C54.5368 16.1213 53.6543 15.2127 52.5469 14.5482L50.4889 17.9782ZM51.7169 19.2601C52.0031 19.737 52.1598 20.2846 52.1598 20.9538H56.1598C56.1598 19.6102 55.8312 18.3427 55.1469 17.2021L51.7169 19.2601ZM52.1598 20.9538V21.493H56.1598V20.9538H52.1598ZM52.1598 21.493C52.1598 21.0875 52.3086 20.4666 52.8767 20.0121C53.3596 19.6258 53.8562 19.6008 54.025 19.6008V23.6008C54.2836 23.6008 54.8477 23.5578 55.3755 23.1356C55.9885 22.6452 56.1598 21.9703 56.1598 21.493H52.1598ZM54.025 19.6008H51.0057V23.6008H54.025V19.6008ZM51.0057 19.6008C51.2781 19.6008 51.8497 19.6703 52.339 20.1596C52.8284 20.649 52.8979 21.2206 52.8979 21.493H48.8979C48.8979 21.8372 48.9853 22.4627 49.5106 22.9881C50.036 23.5134 50.6615 23.6008 51.0057 23.6008V19.6008ZM52.8979 21.493V20.9538H48.8979V21.493H52.8979ZM52.8979 20.9538C52.8979 19.8667 52.5158 18.8622 51.7501 18.0618L48.8595 20.8266C48.8754 20.8433 48.8826 20.8537 48.8851 20.8576C48.8875 20.8612 48.8879 20.8625 48.8881 20.8629C48.8883 20.8634 48.8903 20.8685 48.8926 20.8808C48.8948 20.8934 48.8979 20.917 48.8979 20.9538H52.8979ZM51.81 18.1272C51.0513 17.2601 50.0256 16.7972 48.876 16.7972V20.7972C48.8944 20.7972 48.8968 20.7989 48.8869 20.7969C48.8765 20.7947 48.8595 20.7899 48.8395 20.7809C48.8196 20.7718 48.8043 20.762 48.7952 20.7551C48.7864 20.7485 48.7885 20.7484 48.7997 20.7612L51.81 18.1272ZM48.876 16.7972C47.7273 16.7972 46.7257 17.2716 45.973 18.0927L48.9216 20.7956C48.9412 20.7742 48.9516 20.7667 48.951 20.7671C48.95 20.7678 48.9415 20.7739 48.926 20.7809C48.9104 20.7879 48.8948 20.7928 48.882 20.7955C48.8695 20.7981 48.8665 20.7972 48.876 20.7972V16.7972ZM46.002 18.0617C45.2363 18.8622 44.8542 19.8667 44.8542 20.9538H48.8542C48.8542 20.917 48.8573 20.8934 48.8595 20.8808C48.8617 20.8685 48.8638 20.8634 48.864 20.8629C48.8641 20.8625 48.8646 20.8612 48.867 20.8576C48.8694 20.8537 48.8767 20.8433 48.8926 20.8266L46.002 18.0617ZM44.8542 20.9538V22.8139H48.8542V20.9538H44.8542ZM47.6234 24.6601C48.0267 24.4921 48.4392 24.4095 48.876 24.4095V20.4095C47.9111 20.4095 46.9757 20.5966 46.085 20.9678L47.6234 24.6601ZM48.876 24.4095C49.4951 24.4095 50.0107 24.559 50.4719 24.8421L52.5639 21.4328C51.4436 20.7453 50.198 20.4095 48.876 20.4095V24.4095ZM50.4889 24.8524C50.9989 25.1584 51.3925 25.5617 51.6908 26.0894L55.173 24.1212C54.5368 22.9956 53.6543 22.0869 52.5469 21.4224L50.4889 24.8524ZM51.7002 26.1059C51.9814 26.5926 52.1328 27.1427 52.1328 27.8011H56.1328C56.1328 26.4826 55.817 25.2356 55.1636 24.1048L51.7002 26.1059ZM52.1328 27.8011V29.4725H56.1328V27.8011H52.1328ZM52.1328 29.4725C52.1328 30.0917 51.9828 30.6401 51.6801 31.1559L55.1298 33.1807C55.7975 32.043 56.1328 30.7943 56.1328 29.4725H52.1328ZM51.6732 31.1677C51.3712 31.6904 50.9771 32.0946 50.4719 32.4046L52.5639 35.8139C53.6403 35.1534 54.5041 34.2636 55.1367 33.1688L51.6732 31.1677ZM50.4719 32.4046C50.0107 32.6876 49.4951 32.8371 48.876 32.8371V36.8371C50.198 36.8371 51.4436 36.5013 52.5639 35.8139L50.4719 32.4046ZM48.876 33.6022C49.9982 33.6022 51.0005 33.1568 51.7548 32.3307L48.8009 29.6336C48.7894 29.6461 48.7868 29.6467 48.7945 29.6411C48.8025 29.6352 48.8165 29.6264 48.8353 29.6181C48.8541 29.6097 48.8706 29.6051 48.8815 29.6029C48.8919 29.6008 48.8912 29.6022 48.876 29.6022V33.6022ZM51.7231 32.3646C52.4888 31.5641 52.8709 30.5596 52.8709 29.4725H48.8709C48.8709 29.5094 48.8679 29.5329 48.8656 29.5455C48.8634 29.5578 48.8614 29.5629 48.8611 29.5634C48.861 29.5638 48.8605 29.5651 48.8582 29.5688C48.8557 29.5726 48.8485 29.5831 48.8326 29.5997L51.7231 32.3646ZM52.8709 29.4725V27.8011H48.8709V29.4725H52.8709ZM52.8709 27.8011C52.8709 26.7141 52.4767 25.7238 51.7231 24.936L48.8326 27.7009C48.851 27.7202 48.8598 27.7327 48.8631 27.7377C48.8662 27.7424 48.8663 27.7434 48.8657 27.7419C48.8651 27.7404 48.8659 27.7418 48.8672 27.7485C48.8685 27.7556 48.8709 27.7723 48.8709 27.8011H52.8709ZM51.783 25.0014C51.0383 24.1503 50.0286 23.6714 48.876 23.6714V27.6714C48.8857 27.6714 48.8808 27.6723 48.865 27.669C48.8487 27.6655 48.828 27.6592 48.8062 27.6491C48.7845 27.6391 48.7695 27.629 48.7618 27.6231C48.7546 27.6176 48.7588 27.6196 48.7727 27.6354L51.783 25.0014ZM48.876 23.6714C47.7569 23.6714 46.7633 24.1131 46.002 24.909L48.8926 27.6739C48.9101 27.6556 48.9191 27.6494 48.9183 27.6499C48.918 27.6501 48.9159 27.6516 48.912 27.6538C48.9081 27.656 48.9031 27.6586 48.8972 27.6611C48.8913 27.6637 48.8853 27.6659 48.8795 27.6677C48.8737 27.6696 48.8689 27.6707 48.8656 27.6714C48.8585 27.6728 48.861 27.6714 48.876 27.6714V23.6714ZM46.002 24.909C45.2363 25.7095 44.8542 26.714 44.8542 27.8011H48.8542C48.8542 27.7642 48.8573 27.7407 48.8595 27.7281C48.8617 27.7158 48.8638 27.7107 48.864 27.7102C48.8641 27.7098 48.8646 27.7085 48.867 27.7048C48.8694 27.701 48.8767 27.6905 48.8926 27.6739L46.002 24.909ZM44.8542 27.8011V29.4725H48.8542V27.8011H44.8542ZM44.8542 29.4725C44.8542 30.5575 45.246 31.5405 45.973 32.3336L48.9216 29.6307C48.8762 29.5812 48.8658 29.5546 48.864 29.5499C48.8624 29.5458 48.8542 29.5259 48.8542 29.4725H44.8542ZM46.002 32.3646C46.7633 33.1605 47.7569 33.6022 48.876 33.6022V29.6022C48.861 29.6022 48.8585 29.6008 48.8656 29.6022C48.8689 29.6029 48.8737 29.604 48.8795 29.6058C48.8853 29.6077 48.8913 29.6099 48.8972 29.6125C48.9031 29.615 48.9081 29.6176 48.912 29.6198C48.9159 29.622 48.918 29.6234 48.9183 29.6236C48.9191 29.6242 48.9101 29.618 48.8926 29.5997L46.002 32.3646ZM58.6369 34.1092L57.6446 35.8457L57.6581 35.8534L57.6717 35.8609L58.6369 34.1092ZM56.5611 32.1413L54.8363 33.1537L54.8494 33.176L54.863 33.1979L56.5611 32.1413ZM55.8333 29.4186L53.8333 29.4123V29.4186H55.8333ZM55.8602 20.873L57.8602 20.8793V20.873H55.8602ZM56.5881 18.1772L54.89 17.1206L54.8814 17.1343L54.8731 17.1482L56.5881 18.1772ZM58.6638 16.2362L59.629 17.9879L59.629 17.9879L58.6638 16.2362ZM64.7024 16.2362L63.7218 17.9794L63.7218 17.9794L64.7024 16.2362ZM66.7242 18.1772L65.0092 19.2062L65.0175 19.22L65.0261 19.2338L66.7242 18.1772ZM67.479 20.873L65.479 20.873L65.479 20.8793L67.479 20.873ZM67.506 29.4186L69.506 29.4186L69.506 29.4123L67.506 29.4186ZM66.7512 32.1413L65.0427 31.1014L65.0362 31.1123L66.7512 32.1413ZM64.7024 34.1092L65.6829 35.8524L65.6946 35.8457L64.7024 34.1092ZM64.2441 29.4186L66.2441 29.4186L66.2441 29.4123L64.2441 29.4186ZM64.2171 20.873L62.2171 20.873L62.2171 20.8793L64.2171 20.873ZM63.5162 19.3364L62.2243 20.8631L62.2243 20.8631L63.5162 19.3364ZM59.823 19.3364L61.1149 20.8631L61.1149 20.8631L59.823 19.3364ZM59.823 31.0091L58.5311 32.5359L58.5486 32.5506L58.5663 32.565L59.823 31.0091ZM63.5162 31.0091L64.7729 32.565L64.7796 32.5595L63.5162 31.0091ZM61.6831 32.8371C60.8213 32.8371 60.1468 32.6577 59.6021 32.3575L57.6717 35.8609C58.8882 36.5312 60.2445 36.8371 61.6831 36.8371V32.8371ZM59.6291 32.3727C59.0173 32.0231 58.5758 31.5935 58.2592 31.0847L54.863 33.1979C55.5528 34.3065 56.4952 35.1889 57.6446 35.8457L59.6291 32.3727ZM58.2859 31.1289C57.9867 30.619 57.8333 30.0627 57.8333 29.4186H53.8333C53.8333 30.7514 54.1651 32.0102 54.8363 33.1537L58.2859 31.1289ZM57.8332 29.4249L57.8602 20.8793L53.8602 20.8666L53.8333 29.4123L57.8332 29.4249ZM57.8602 20.873C57.8602 20.2288 58.0135 19.6888 58.3031 19.2062L54.8731 17.1482C54.1922 18.283 53.8602 19.5402 53.8602 20.873H57.8602ZM58.2862 19.2338C58.5985 18.7319 59.0309 18.3175 59.629 17.9879L57.6986 14.4845C56.5355 15.1254 55.5841 16.005 54.89 17.1206L58.2862 19.2338ZM59.629 17.9879C60.1783 17.6852 60.8452 17.5084 61.6831 17.5084V13.5084C60.2566 13.5084 58.9106 13.8167 57.6986 14.4845L59.629 17.9879ZM61.6831 17.5084C62.546 17.5084 63.204 17.6881 63.7218 17.9794L65.6829 14.4931C64.4755 13.8139 63.1206 13.5084 61.6831 13.5084V17.5084ZM63.7218 17.9794C64.2974 18.3031 64.7116 18.7102 65.0092 19.2062L68.4392 17.1482C67.7663 16.0267 66.8327 15.1398 65.6829 14.4931L63.7218 17.9794ZM65.0261 19.2338C65.3243 19.7131 65.479 20.2432 65.479 20.873H69.479C69.479 19.5258 69.1305 18.2588 68.4223 17.1206L65.0261 19.2338ZM65.479 20.8793L65.506 29.4249L69.506 29.4123L69.479 20.8666L65.479 20.8793ZM65.506 29.4186C65.506 30.0484 65.351 30.595 65.0428 31.1014L68.4595 33.1812C69.1577 32.0342 69.506 30.7656 69.506 29.4186H65.506ZM65.0362 31.1123C64.7405 31.6052 64.3163 32.0263 63.7101 32.3727L65.6946 35.8457C66.8497 35.1857 67.7914 34.2949 68.4661 33.1703L65.0362 31.1123ZM63.7218 32.3661C63.204 32.6574 62.546 32.8371 61.6831 32.8371V36.8371C63.1206 36.8371 64.4755 36.5315 65.6829 35.8524L63.7218 32.3661ZM66.2441 29.4123L66.2171 20.8666L62.2171 20.8793L62.2441 29.4249L66.2441 29.4123ZM66.2171 20.873C66.2171 19.6743 65.7386 18.5969 64.8081 17.8096L62.2243 20.8631C62.2409 20.8772 62.2439 20.8824 62.24 20.8773C62.2381 20.8749 62.2352 20.8709 62.2319 20.8653C62.2285 20.8597 62.2252 20.8535 62.2223 20.8471C62.2193 20.8406 62.2172 20.8349 62.2157 20.8304C62.2143 20.826 62.2139 20.8238 62.214 20.8242C62.2141 20.8248 62.2171 20.8398 62.2171 20.873H66.2171ZM64.8081 17.8096C63.9012 17.0422 62.7967 16.7433 61.6831 16.7433V20.7433C62.0791 20.7433 62.1967 20.8398 62.2243 20.8631L64.8081 17.8096ZM61.6831 16.7433C60.5649 16.7433 59.4462 17.0353 58.5311 17.8096L61.1149 20.8631C61.1343 20.8467 61.2558 20.7433 61.6831 20.7433V16.7433ZM58.5311 17.8096C57.6007 18.5969 57.1221 19.6743 57.1221 20.873H61.1221C61.1221 20.8398 61.1251 20.8249 61.1253 20.8242C61.1254 20.8238 61.1249 20.826 61.1235 20.8304C61.122 20.8349 61.1199 20.8406 61.117 20.8471C61.114 20.8535 61.1107 20.8597 61.1074 20.8653C61.104 20.8709 61.1011 20.8749 61.0993 20.8773C61.0953 20.8824 61.0983 20.8772 61.1149 20.8631L58.5311 17.8096ZM57.1221 20.873V29.4186H61.1221V20.873H57.1221ZM57.1221 29.4186C57.1221 30.6142 57.5726 31.7248 58.5311 32.5359L61.1149 29.4823C61.1043 29.4733 61.1049 29.4721 61.1108 29.4799C61.1169 29.4879 61.1231 29.4983 61.1275 29.5084C61.1318 29.5182 61.131 29.5197 61.1288 29.5083C61.1264 29.4963 61.1221 29.4677 61.1221 29.4186H57.1221ZM58.5663 32.565C59.4807 33.3035 60.5859 33.5752 61.6831 33.5752V29.5752C61.2347 29.5752 61.0999 29.4695 61.0797 29.4532L58.5663 32.565ZM61.6831 33.5752C62.7752 33.5752 63.8665 33.2971 64.7729 32.565L62.2595 29.4532C62.2314 29.4759 62.1006 29.5752 61.6831 29.5752V33.5752ZM64.7796 32.5595C65.7633 31.758 66.2441 30.6418 66.2441 29.4186H62.2441C62.2441 29.4631 62.24 29.4869 62.2386 29.4941C62.2372 29.5006 62.2377 29.4952 62.2435 29.4827C62.2462 29.4768 62.2494 29.4707 62.253 29.4648C62.2566 29.4589 62.26 29.4542 62.2626 29.451C62.2681 29.4438 62.2672 29.447 62.2529 29.4586L64.7796 32.5595ZM73.0881 26.1567H75.0881V24.1567H73.0881V26.1567ZM69.1253 23.8114L67.4612 22.702L67.3922 22.8056L67.3365 22.9169L69.1253 23.8114ZM73.0881 23.7305V25.7305H75.0881V23.7305H73.0881ZM75.5952 23.7305H73.5952V25.7305H75.5952V23.7305ZM79.6928 26.1297L80.5872 27.9186L80.8775 27.7734L81.107 27.5439L79.6928 26.1297ZM75.5952 26.1567V24.1567H73.5952V26.1567H75.5952ZM73.2229 29.1169C73.4863 29.1169 74.0511 29.1841 74.536 29.669C75.0209 30.1539 75.0881 30.7188 75.0881 30.9821H71.0881C71.0881 31.3353 71.1778 31.9676 71.7076 32.4974C72.2374 33.0273 72.8697 33.1169 73.2229 33.1169V29.1169ZM75.0881 30.9821V26.1567H71.0881V30.9821H75.0881ZM73.0881 24.1567H69.2601V28.1567H73.0881V24.1567ZM69.2601 24.1567C69.4347 24.1567 69.9379 24.1855 70.4192 24.5865C70.9703 25.0458 71.0984 25.653 71.0984 26.0219H67.0984C67.0984 26.4807 67.2534 27.1553 67.8584 27.6594C68.3936 28.1054 68.9777 28.1567 69.2601 28.1567V24.1567ZM71.0984 26.0219V23.8922H67.0984V26.0219H71.0984ZM71.0984 23.8922C71.0984 24.1857 71.0313 24.4046 71.0025 24.491C70.9676 24.5956 70.9317 24.6708 70.9142 24.7058L67.3365 22.9169C67.3107 22.9685 67.0984 23.3646 67.0984 23.8922H71.0984ZM70.7894 24.9208C70.6811 25.0832 70.4992 25.2951 70.215 25.4657C69.9173 25.6443 69.5846 25.7305 69.2601 25.7305V21.7305C68.3961 21.7305 67.7821 22.2206 67.4612 22.702L70.7894 24.9208ZM69.2601 25.7305H73.0881V21.7305H69.2601V25.7305ZM75.0881 23.7305V18.8242H71.0881V23.7305H75.0881ZM75.0881 18.8242C75.0881 19.2707 74.9347 19.7189 74.633 20.081C74.3607 20.4076 74.0506 20.5663 73.8646 20.6407C73.5272 20.7756 73.2523 20.7703 73.2229 20.7703V16.7703C73.1036 16.7703 72.7614 16.7738 72.379 16.9268C72.1705 17.0102 71.8436 17.18 71.5601 17.5202C71.2471 17.8958 71.0881 18.3597 71.0881 18.8242H75.0881ZM73.2229 20.7703H75.4874V16.7703H73.2229V20.7703ZM75.4874 20.7703C75.4212 20.7703 75.0738 20.7726 74.6738 20.5726C74.4455 20.4585 74.1542 20.2547 73.9244 19.91C73.6862 19.5527 73.5952 19.1652 73.5952 18.8242H77.5952C77.5952 18.4652 77.4997 18.0619 77.2526 17.6912C77.0137 17.333 76.7089 17.118 76.4627 16.9949C76.0268 16.7769 75.6255 16.7703 75.4874 16.7703V20.7703ZM73.5952 18.8242V23.7305H77.5952V18.8242H73.5952ZM75.5952 25.7305H79.6119V21.7305H75.5952V25.7305ZM79.6119 25.7305C79.243 25.7305 78.6358 25.6024 78.1766 25.0513C77.7755 24.57 77.7467 24.0668 77.7467 23.8922H81.7467C81.7467 23.6098 81.6954 23.0257 81.2494 22.4905C80.7453 21.8855 80.0707 21.7305 79.6119 21.7305V25.7305ZM77.7467 23.8922V26.0219H81.7467V23.8922H77.7467ZM77.7467 26.0219C77.7467 25.3403 78.0965 24.8976 78.2786 24.7155L81.107 27.5439C81.3609 27.29 81.7467 26.7754 81.7467 26.0219H77.7467ZM78.7983 24.3409C78.8334 24.3234 78.9086 24.2874 79.0131 24.2526C79.0995 24.2238 79.3184 24.1567 79.6119 24.1567V28.1567C80.1395 28.1567 80.5356 27.9444 80.5872 27.9186L78.7983 24.3409ZM79.6119 24.1567H75.5952V28.1567H79.6119V24.1567ZM73.5952 26.1567V30.9821H77.5952V26.1567H73.5952ZM73.5952 30.9821C73.5952 30.8134 73.6202 30.3167 74.0065 29.8338C74.461 29.2657 75.0819 29.1169 75.4874 29.1169V33.1169C75.9647 33.1169 76.6396 32.9456 77.13 32.3326C77.5522 31.8048 77.5952 31.2407 77.5952 30.9821H73.5952ZM75.4874 29.1169H73.2229V33.1169H75.4874V29.1169Z" fill="#46494C" mask="url(#path-2-outside-1_291_93)"/>
</svg>
