<svg width="58" height="51" viewBox="0 0 58 51" fill="none" xmlns="http://www.w3.org/2000/svg">
<path d="M54.2218 1.02856H57.9038C57.9373 1.22671 57.993 1.40421 57.9893 1.58585C57.9447 6.98117 58.1231 12.3889 57.8072 17.7636C56.8821 33.6152 47.6343 46.5565 32.6834 49.9332C28.7858 50.8125 24.8512 50.701 20.8645 50.6639V46.5565C22.5179 46.5565 24.1415 46.5606 25.7615 46.5565C29.4212 46.54 32.9992 45.9332 36.4248 44.476C46.2893 40.2819 51.9183 32.2116 53.7463 20.7977C54.1029 18.5644 54.1587 16.2568 54.1995 13.9782C54.2701 10.0772 54.2181 6.16795 54.2181 2.26697V1.03682L54.2218 1.02856Z" fill="white"/>
<path d="M3.5505 41.673C3.5505 43.9888 3.51707 46.3088 3.56537 48.6246C3.58394 49.4832 3.31643 49.7556 2.57706 49.6855C1.98258 49.6277 1.37697 49.6525 0.775062 49.6813C0.247468 49.7061 0.0765576 49.446 0.080273 48.8846C0.0951348 43.7741 -0.146369 38.643 0.143436 33.5532C0.741624 23.0721 4.40134 14.168 11.9883 7.56315C16.3094 3.80252 21.2435 1.49496 26.6755 0.727146C29.8336 0.277192 33.0475 0.314344 36.239 0.112071C36.8372 0.0749186 37.0639 0.326728 37.0342 0.991339C36.997 1.7509 36.997 2.51458 37.0342 3.27413C37.0676 3.95939 36.8001 4.14515 36.2205 4.13689C34.3627 4.11212 32.4976 4.05433 30.6436 4.14102C18.3417 4.71069 7.51489 13.0121 4.40877 27.7574C3.44276 32.3437 3.51707 37.0042 3.5505 41.6606V41.673Z" fill="white"/>
<path d="M20.8645 39.3117C22.8374 39.3117 24.7769 39.3117 26.7126 39.3117C30.6324 39.3034 34.3107 38.2467 37.6212 35.9061C44.0749 31.3322 47.4746 24.7811 47.6158 16.2567C47.6938 11.4971 47.6306 6.73335 47.6306 1.96961V0.867432H51.2941C51.3163 1.03668 51.3498 1.18942 51.3498 1.33803C51.3498 6.60951 51.5244 11.8851 51.3163 17.1442C50.9076 27.2785 46.5903 34.9112 38.7061 40.0093C35.0241 42.3912 30.9928 43.448 26.7312 43.4397C24.7917 43.4397 22.856 43.4397 20.8682 43.4397V39.3117H20.8645Z" fill="white"/>
<path d="M10.2346 40.6906C10.2346 43.4233 10.216 46.152 10.2457 48.8847C10.2532 49.6195 10.0674 49.9374 9.37261 49.8796C8.74841 49.8259 8.11307 49.8259 7.48516 49.8796C6.80523 49.9374 6.59716 49.6484 6.60088 48.8971C6.62689 44.2944 6.61202 39.6875 6.61202 35.0847C6.61202 32.1208 6.90555 29.1899 7.79354 26.387C11.1152 15.9307 17.6655 9.57357 27.5523 7.78613C30.4318 7.266 33.419 7.48892 36.3579 7.36095C36.8335 7.34031 37.0341 7.55909 37.023 8.09161C37.0044 8.91721 36.9933 9.74282 37.023 10.5684C37.049 11.2083 36.7964 11.3899 36.2539 11.3858C34.4519 11.361 32.6462 11.3362 30.8442 11.3858C23.0009 11.5922 17.0822 15.5427 13.0175 22.9029C11.0669 26.4324 10.1231 30.3251 10.216 34.5027C10.2606 36.5667 10.2234 38.6307 10.2234 40.6947L10.2346 40.6906Z" fill="white"/>
<path d="M41.0803 1.05322H44.7586C44.7735 1.39172 44.7995 1.69719 44.7995 2.00267C44.7995 6.47744 44.8069 10.9563 44.7995 15.4311C44.7772 26.9111 36.5438 36.0134 26.1814 36.0134C24.4388 36.0134 22.6963 36.0134 20.8868 36.0134V31.8854C21.2287 31.8854 21.5853 31.8978 21.9457 31.8854C24.3162 31.7946 26.735 32.0216 29.0423 31.5469C36.28 30.0608 41.0469 23.3858 41.0803 15.0431C41.0989 10.7582 41.0803 6.46919 41.0803 2.1843C41.0803 1.84167 41.0803 1.49492 41.0803 1.05735V1.05322Z" fill="white"/>
<path d="M13.285 41.0908C13.285 39.1218 13.3184 37.1527 13.2776 35.1877C13.1215 27.101 17.8513 19.3114 24.8995 16.2525C27.1362 15.2824 29.4546 14.8407 31.8399 14.7995C33.3001 14.7747 34.7566 14.816 36.2168 14.7829C36.7889 14.7706 37.0713 14.9481 37.0341 15.6416C36.997 16.4011 36.997 17.1648 37.0341 17.9244C37.0639 18.5807 36.8484 18.8284 36.2465 18.816C34.5299 18.783 32.8134 18.8036 31.0969 18.8036C24.201 18.816 17.7361 25.1319 16.9633 32.744C16.7292 35.035 16.7961 37.3632 16.7738 39.6749C16.7441 42.7214 16.7404 45.7679 16.7849 48.8143C16.7961 49.673 16.5323 49.9454 15.7966 49.8711C15.2282 49.8133 14.6523 49.8298 14.0801 49.8711C13.4819 49.9124 13.2738 49.6482 13.2813 48.9877C13.3036 46.354 13.2887 43.7204 13.2887 41.0826L13.285 41.0908Z" fill="white"/>
</svg>
