<svg width="65" height="65" viewBox="0 0 65 65" fill="none" xmlns="http://www.w3.org/2000/svg">
<mask id="path-1-inside-1_291_98" fill="white">
<path d="M65 60.5012L43.7009 38.9071C46.6027 34.8582 48.3292 29.8806 48.3292 24.5111C48.3292 11.0002 37.4911 1.43425e-05 24.1719 1.43425e-05C10.8382 -0.0144978 0 10.9857 0 24.4965C0 38.0074 10.8382 49.0076 24.1574 49.0076C29.9319 49.0076 35.2277 46.9469 39.3917 43.5075L60.5748 65L65 60.5012ZM24.1574 43.3478C13.9141 43.3478 5.57143 34.8873 5.57143 24.4965C5.57143 14.1058 13.9141 5.64525 24.1574 5.64525C34.4007 5.64525 42.7433 14.1058 42.7433 24.4965C42.7433 34.8873 34.4152 43.3478 24.1574 43.3478Z"/>
</mask>
<path d="M65 60.5012L43.7009 38.9071C46.6027 34.8582 48.3292 29.8806 48.3292 24.5111C48.3292 11.0002 37.4911 1.43425e-05 24.1719 1.43425e-05C10.8382 -0.0144978 0 10.9857 0 24.4965C0 38.0074 10.8382 49.0076 24.1574 49.0076C29.9319 49.0076 35.2277 46.9469 39.3917 43.5075L60.5748 65L65 60.5012ZM24.1574 43.3478C13.9141 43.3478 5.57143 34.8873 5.57143 24.4965C5.57143 14.1058 13.9141 5.64525 24.1574 5.64525C34.4007 5.64525 42.7433 14.1058 42.7433 24.4965C42.7433 34.8873 34.4152 43.3478 24.1574 43.3478Z" stroke="#46494C" stroke-width="4" mask="url(#path-1-inside-1_291_98)"/>
</svg>
