<svg width="25" height="19" viewBox="0 0 25 19" fill="none" xmlns="http://www.w3.org/2000/svg">
<path d="M23.9514 10.553L16.1178 18.5113C15.4183 19.2218 14.206 18.7244 14.206 17.706V13.1584H7.86452C7.24436 13.1584 6.74543 12.6515 6.74543 12.0215V7.47396C6.74543 6.84393 7.24436 6.33707 7.86452 6.33707H14.206V1.78951C14.206 0.775782 15.4137 0.273655 16.1178 0.984212L23.9514 8.94244C24.385 9.38772 24.385 10.1078 23.9514 10.553ZM9.72966 18.2744V16.3796C9.72966 16.067 9.47787 15.8112 9.17012 15.8112H5.25332C4.42799 15.8112 3.76121 15.1338 3.76121 14.2953V5.20018C3.76121 4.36172 4.42799 3.68433 5.25332 3.68433H9.17012C9.47787 3.68433 9.72966 3.42853 9.72966 3.11588V1.22106C9.72966 0.908419 9.47787 0.652619 9.17012 0.652619H5.25332C2.78201 0.652619 0.776978 2.68955 0.776978 5.20018V14.2953C0.776978 16.8059 2.78201 18.8429 5.25332 18.8429H9.17012C9.47787 18.8429 9.72966 18.5871 9.72966 18.2744Z" fill="#222A31"/>
</svg>
