<svg width="73" height="73" viewBox="0 0 73 73" fill="none" xmlns="http://www.w3.org/2000/svg">
<path d="M36.4993 63.875V39.5417M36.4993 63.875L13.106 49.2542C12.6465 48.967 12.4167 48.8234 12.2914 48.5972C12.166 48.371 12.166 48.1001 12.166 47.5582V24.3333M36.4993 63.875L48.666 56.2708L59.8927 49.2542C60.3522 48.967 60.582 48.8234 60.7073 48.5972C60.8327 48.371 60.8327 48.1001 60.8327 47.5582V24.3333M36.4993 39.5417L12.166 24.3333M36.4993 39.5417L60.8327 24.3333M12.166 24.3333L35.4393 9.7875C35.9548 9.46533 36.2126 9.30425 36.4993 9.30425C36.7861 9.30425 37.0439 9.46533 37.5593 9.7875L60.8327 24.3333" stroke="#33363F" stroke-width="3" stroke-linejoin="round"/>
<path d="M47.1673 44.1042C47.1673 44.9326 47.8389 45.6042 48.6673 45.6042C49.4957 45.6042 50.1673 44.9326 50.1673 44.1042H47.1673ZM48.542 32.007L49.8539 31.2798L48.542 32.007ZM23.539 18.0012L46.9323 32.622L48.5223 30.078L25.129 15.4572L23.539 18.0012ZM50.1673 44.1042V33.046H47.1673V44.1042H50.1673ZM46.9323 32.622C47.0506 32.696 47.1383 32.7508 47.2123 32.799C47.2861 32.8471 47.3258 32.8753 47.3474 32.8919C47.3677 32.9074 47.3551 32.8999 47.3288 32.8717C47.299 32.8397 47.2627 32.7931 47.23 32.7342L49.8539 31.2798C49.6567 30.9241 49.3984 30.6841 49.1725 30.5109C48.972 30.3572 48.7281 30.2067 48.5223 30.078L46.9323 32.622ZM50.1673 33.046C50.1673 32.8033 50.1689 32.5168 50.1448 32.2652C50.1177 31.9819 50.0511 31.6356 49.8539 31.2798L47.23 32.7342C47.1973 32.6752 47.177 32.6197 47.1657 32.5774C47.1557 32.5402 47.156 32.5256 47.1585 32.551C47.1611 32.5781 47.164 32.6268 47.1656 32.7148C47.1673 32.8031 47.1673 32.9065 47.1673 33.046H50.1673Z" fill="#33363F"/>
</svg>
