<svg width="41" height="41" viewBox="0 0 41 41" fill="none" xmlns="http://www.w3.org/2000/svg">
<rect width="40.8689" height="40.8689" rx="5.10862" fill="#222A31"/>
<path d="M23.0909 24.3635L17.2727 30.1817L23.0909 35.9999" stroke="white" stroke-width="2"/>
<path d="M28.9994 14.909C29.9472 16.5506 30.4179 18.4243 30.3585 20.3189C30.2991 22.2136 29.712 24.054 28.6633 25.6331C27.6145 27.2121 26.1458 28.467 24.4224 29.2565C22.6991 30.046 20.7895 30.3388 18.9088 30.1018" stroke="white" stroke-width="2" stroke-linecap="round"/>
<path d="M17.2727 15.6362L23.0908 9.81807L17.2727 3.9999" stroke="white" stroke-width="2"/>
<path d="M11.3641 25.0907C10.4026 23.4253 9.93233 21.5216 10.0079 19.6C10.0834 17.6784 10.7016 15.8174 11.7909 14.2326C12.8802 12.6477 14.396 11.4038 16.163 10.6447C17.93 9.88569 19.8758 9.64257 21.7752 9.94352" stroke="white" stroke-width="2" stroke-linecap="round"/>
</svg>
