<svg width="42" height="42" viewBox="0 0 42 42" fill="none" xmlns="http://www.w3.org/2000/svg">
<rect x="0.586426" y="0.391113" width="40.8689" height="40.8689" rx="5.10862" fill="#222A31"/>
<path d="M36.3469 34.0946L26.6378 24.2532C27.9605 22.4079 28.7476 20.1394 28.7476 17.6923C28.7476 11.5348 23.8071 6.52149 17.7356 6.52149C11.6575 6.51488 6.71692 11.5282 6.71692 17.6856C6.71692 23.8431 11.6575 28.8564 17.7289 28.8564C20.3613 28.8564 22.7753 27.9172 24.6735 26.3498L34.3297 36.1448L36.3469 34.0946ZM17.7289 26.277C13.0596 26.277 9.25663 22.4211 9.25663 17.6856C9.25663 12.9501 13.0596 9.09427 17.7289 9.09427C22.3983 9.09427 26.2013 12.9501 26.2013 17.6856C26.2013 22.4211 22.4049 26.277 17.7289 26.277Z" fill="white"/>
</svg>
