<svg width="69" height="69" viewBox="0 0 69 69" fill="none" xmlns="http://www.w3.org/2000/svg">
<path fill-rule="evenodd" clip-rule="evenodd" d="M34.3145 54.3336C45.3699 54.3336 54.3321 45.3714 54.3321 34.316C54.3321 23.2605 45.3699 14.2983 34.3145 14.2983C23.2591 14.2983 14.2969 23.2605 14.2969 34.316C14.2969 45.3714 23.2591 54.3336 34.3145 54.3336ZM28.1188 19.3572C30.0832 18.5435 32.1887 18.1247 34.315 18.1247C34.5819 18.1247 34.7983 17.9083 34.7983 17.6414C34.7983 17.3744 34.5819 17.158 34.315 17.158C32.0618 17.158 29.8306 17.6018 27.7489 18.4641C25.6672 19.3264 23.7757 20.5902 22.1825 22.1835C20.5892 23.7768 19.3253 25.6682 18.4631 27.7499C17.6008 29.8316 17.157 32.0628 17.157 34.316C17.157 34.5829 17.3734 34.7993 17.6403 34.7993C17.9073 34.7993 18.1237 34.5829 18.1237 34.316C18.1237 32.1897 18.5425 30.0843 19.3561 28.1199C20.1698 26.1554 21.3625 24.3705 22.866 22.867C24.3695 21.3635 26.1544 20.1709 28.1188 19.3572Z" fill="#7E869E" fill-opacity="0.25"/>
<path d="M58.6221 58.6231L48.6133 48.6143" stroke="#222222" stroke-width="0.966646" stroke-linecap="round"/>
<circle cx="31.4557" cy="31.4562" r="25.2536" stroke="#222222" stroke-width="0.966646"/>
</svg>
