<svg width="60" height="60" viewBox="0 0 66 66" fill="none" xmlns="http://www.w3.org/2000/svg">
<path d="M38.6801 7.30099L40.1727 7.15174L40.1727 7.15174L38.6801 7.30099ZM39.2746 13.2462L37.7821 13.3954L37.7821 13.3954L39.2746 13.2462ZM40.0725 15.9255L40.6465 14.5397L40.6465 14.5397L40.0725 15.9255ZM42.5312 14.5951L41.5813 13.4342L41.5813 13.4342L42.5312 14.5951ZM47.1554 10.8116L48.1053 11.9726L48.1053 11.9726L47.1554 10.8116ZM48.5389 10.0138L48.6136 8.51562L48.6136 8.51562L48.5389 10.0138ZM49.8361 10.9453L50.8967 9.88468L50.8967 9.88468L49.8361 10.9453ZM55.0546 16.1638L53.9939 17.2245L53.9939 17.2245L55.0546 16.1638ZM55.1883 18.8445L54.0273 17.8947L54.0273 17.8947L55.1883 18.8445ZM51.4047 23.4688L50.2438 22.519L50.2438 22.519L51.4047 23.4688ZM50.0744 25.9275L48.6885 26.5015L48.6885 26.5015L50.0744 25.9275ZM52.7537 26.7254L52.6044 28.2179L52.6044 28.2179L52.7537 26.7254ZM58.699 27.3199L58.8483 25.8273L58.8483 25.8273L58.699 27.3199ZM60.2415 27.734L61.3536 26.7275L61.3536 26.7275L60.2415 27.734ZM60.2415 38.266L61.3536 39.2725L61.3536 39.2725L60.2415 38.266ZM58.699 38.6801L58.8483 40.1727L58.8483 40.1727L58.699 38.6801ZM52.7547 39.2745L52.9039 40.7671L52.9039 40.7671L52.7547 39.2745ZM50.0754 40.0724L48.6896 39.4983L48.6896 39.4984L50.0754 40.0724ZM51.4058 42.5311L52.5667 41.5812L52.5667 41.5812L51.4058 42.5311ZM55.1884 47.1543L56.3493 46.2044L56.3493 46.2044L55.1884 47.1543ZM55.9863 48.5377L54.4881 48.463L54.4881 48.463L55.9863 48.5377ZM55.0547 49.835L56.1154 50.8956L56.1154 50.8956L55.0547 49.835ZM49.8362 55.0534L48.7755 53.9928L48.7755 53.9928L49.8362 55.0534ZM48.539 55.985L48.6137 57.4832L48.6137 57.4832L48.539 55.985ZM47.1555 55.1871L48.1054 54.0262L48.1054 54.0262L47.1555 55.1871ZM42.5313 51.4037L41.5814 52.5646L41.5814 52.5646L42.5313 51.4037ZM40.0726 50.0733L39.4986 48.6875L39.4986 48.6875L40.0726 50.0733ZM39.2747 52.7526L37.7822 52.6033L37.7822 52.6033L39.2747 52.7526ZM38.6801 58.699L40.1727 58.8483L40.1727 58.8483L38.6801 58.699ZM38.266 60.2415L37.2595 59.1293L37.2595 59.1293L38.266 60.2415ZM27.734 60.2415L28.7405 59.1293L28.7405 59.1293L27.734 60.2415ZM27.3199 58.699L28.8125 58.5498L28.8125 58.5498L27.3199 58.699ZM26.7254 52.7537L25.2328 52.9029L25.2328 52.9029L26.7254 52.7537ZM25.9275 50.0744L26.5016 48.6886L26.5015 48.6886L25.9275 50.0744ZM23.4688 51.4048L24.4187 52.5657L24.4187 52.5657L23.4688 51.4048ZM18.8444 55.1884L17.8945 54.0275L17.8945 54.0275L18.8444 55.1884ZM17.4609 55.9863L17.3862 57.4844L17.3862 57.4844L17.4609 55.9863ZM16.1637 55.0547L15.103 56.1154L15.103 56.1154L16.1637 55.0547ZM10.9452 49.8362L12.0059 48.7755L12.0059 48.7755L10.9452 49.8362ZM10.0136 48.539L11.5118 48.4643L11.5118 48.4643L10.0136 48.539ZM10.8115 47.1555L9.65058 46.2057L9.65057 46.2057L10.8115 47.1555ZM14.5951 42.5312L13.4341 41.5813L13.4341 41.5813L14.5951 42.5312ZM15.9255 40.0725L14.5396 40.6465L14.5396 40.6465L15.9255 40.0725ZM13.2462 39.2746L13.0969 40.7672L13.0969 40.7672L13.2462 39.2746ZM7.30099 38.6801L7.15174 40.1727L7.15174 40.1727L7.30099 38.6801ZM5.75855 38.266L4.64637 39.2725L4.64637 39.2725L5.75855 38.266ZM5.75855 27.734L6.87073 28.7405L6.87073 28.7405L5.75855 27.734ZM7.30097 27.3199V25.8199H7.22616L7.15171 25.8273L7.30097 27.3199ZM7.30099 27.3199V28.8199H7.37581L7.45025 28.8125L7.30099 27.3199ZM13.2472 26.7253L13.3965 28.2178L13.3965 28.2178L13.2472 26.7253ZM15.9265 25.9274L14.5407 25.3534L14.5407 25.3534L15.9265 25.9274ZM14.5961 23.4687L13.4352 24.4186L13.4352 24.4186L14.5961 23.4687ZM10.8116 18.8433L11.9726 17.8934L11.9726 17.8934L10.8116 18.8433ZM10.0138 17.4598L11.5119 17.5345L11.5119 17.5345L10.0138 17.4598ZM10.9453 16.1626L12.006 17.2232L12.006 17.2232L10.9453 16.1626ZM16.1638 10.9441L15.1032 9.88343L15.1032 9.88343L16.1638 10.9441ZM17.461 10.0125L17.3863 8.51438L17.3863 8.51438L17.461 10.0125ZM18.8445 10.8104L17.8947 11.9713L17.8947 11.9713L18.8445 10.8104ZM23.4689 14.594L24.4188 13.4331L24.4188 13.4331L23.4689 14.594ZM25.9276 15.9244L25.3536 14.5386L25.3536 14.5386L25.9276 15.9244ZM26.7255 13.2451L25.2329 13.0959L25.2329 13.0959L26.7255 13.2451ZM27.3199 7.30099L25.8273 7.15174L25.8273 7.15174L27.3199 7.30099ZM27.734 5.75855L26.7275 4.64637L26.7275 4.64637L27.734 5.75855ZM40.1727 7.15174C40.1338 6.76367 40.0933 6.32922 40.0093 5.96694C39.9157 5.56294 39.7298 5.06018 39.2725 4.64637L37.2595 6.87072C37.1843 6.80266 37.132 6.72709 37.1011 6.6662C37.0753 6.61513 37.0756 6.5961 37.0869 6.64457C37.0984 6.69433 37.1131 6.77768 37.131 6.92083C37.1488 7.06349 37.1656 7.23093 37.1875 7.45025L40.1727 7.15174ZM40.7672 13.0969L40.1727 7.15174L37.1875 7.45025L37.7821 13.3954L40.7672 13.0969ZM40.6465 14.5397C41.0455 14.7049 41.058 15.0481 40.9822 14.7466C40.9058 14.443 40.8539 13.9644 40.7672 13.0969L37.7821 13.3954C37.8587 14.1615 37.9293 14.9081 38.0728 15.4785C38.2169 16.051 38.5466 16.917 39.4984 17.3113L40.6465 14.5397ZM41.5813 13.4342C40.9066 13.9862 40.5315 14.2879 40.2628 14.4486C39.996 14.6082 40.2475 14.3744 40.6465 14.5397L39.4984 17.3113C40.4503 17.7056 41.2958 17.3264 41.8025 17.0234C42.3073 16.7215 42.8852 16.2435 43.481 15.756L41.5813 13.4342ZM46.2055 9.6507L41.5813 13.4342L43.481 15.756L48.1053 11.9726L46.2055 9.6507ZM48.6136 8.51562C47.9977 8.48491 47.5107 8.70897 47.1588 8.92841C46.8432 9.12518 46.5074 9.40374 46.2055 9.6507L48.1053 11.9726C48.2758 11.833 48.4061 11.7265 48.5196 11.6382C48.6334 11.5496 48.7028 11.5011 48.7461 11.4741C48.7884 11.4477 48.7751 11.4614 48.7207 11.4793C48.6559 11.5005 48.5655 11.517 48.4641 11.5119L48.6136 8.51562ZM50.8967 9.88468C50.621 9.60891 50.3145 9.29831 50.0201 9.07112C49.6917 8.81776 49.2295 8.54634 48.6136 8.51562L48.4641 11.5119C48.3628 11.5068 48.2745 11.4815 48.2121 11.4539C48.1597 11.4307 48.1479 11.4158 48.1873 11.4462C48.2278 11.4774 48.2919 11.5326 48.3964 11.6321C48.5005 11.7312 48.6196 11.8501 48.7754 12.006L50.8967 9.88468ZM56.1152 15.1032L50.8967 9.88468L48.7754 12.006L53.9939 17.2245L56.1152 15.1032ZM57.4843 17.3863C57.4536 16.7704 57.1821 16.3082 56.9288 15.9798C56.7016 15.6854 56.391 15.3789 56.1152 15.1032L53.9939 17.2245C54.1498 17.3803 54.2687 17.4994 54.3678 17.6035C54.4673 17.708 54.5225 17.7721 54.5537 17.8126C54.5841 17.852 54.5692 17.8402 54.546 17.7878C54.5184 17.7254 54.4931 17.6371 54.488 17.5358L57.4843 17.3863ZM56.3492 19.7944C56.5962 19.4925 56.8747 19.1567 57.0715 18.8411C57.2909 18.4892 57.515 18.0022 57.4843 17.3863L54.488 17.5358C54.483 17.4345 54.4994 17.344 54.5206 17.2792C54.5385 17.2248 54.5522 17.2115 54.5258 17.2538C54.4988 17.2971 54.4503 17.3665 54.3617 17.4803C54.2734 17.5938 54.1669 17.7241 54.0273 17.8947L56.3492 19.7944ZM52.5657 24.4187L56.3492 19.7944L54.0273 17.8947L50.2438 22.519L52.5657 24.4187ZM51.4602 25.3535C51.6255 25.7525 51.3917 26.004 51.5512 25.7372C51.7119 25.4685 52.0136 25.0934 52.5657 24.4187L50.2438 22.519C49.7563 23.1148 49.2783 23.6927 48.9765 24.1975C48.6735 24.7042 48.2943 25.5497 48.6885 26.5015L51.4602 25.3535ZM52.9029 25.2328C52.0354 25.1461 51.5569 25.0942 51.2533 25.0178C50.9518 24.942 51.2949 24.9545 51.4602 25.3535L48.6885 26.5015C49.0828 27.4534 49.9488 27.7831 50.5213 27.9272C51.0917 28.0707 51.8383 28.1413 52.6044 28.2179L52.9029 25.2328ZM58.8483 25.8273L52.9029 25.2328L52.6044 28.2179L58.5498 28.8125L58.8483 25.8273ZM61.3536 26.7275C60.9398 26.2702 60.4371 26.0843 60.0331 25.9907C59.6708 25.9067 59.2363 25.8662 58.8483 25.8273L58.5498 28.8125C58.7691 28.8344 58.9365 28.8512 59.0792 28.869C59.2223 28.8869 59.3057 28.9016 59.3554 28.9131C59.4039 28.9244 59.3849 28.9247 59.3338 28.8989C59.2729 28.868 59.1973 28.8157 59.1293 28.7405L61.3536 26.7275ZM62 29.31C62 28.92 62.0029 28.4836 61.9554 28.1148C61.9024 27.7035 61.7674 27.1847 61.3536 26.7275L59.1293 28.7405C59.0612 28.6653 59.0167 28.5849 58.992 28.5212C58.9714 28.4678 58.9736 28.4489 58.98 28.4983C58.9865 28.5489 58.9929 28.6333 58.9964 28.7776C58.9999 28.9213 59 29.0896 59 29.31H62ZM62 36.69V29.31H59V36.69H62ZM61.3536 39.2725C61.7674 38.8153 61.9024 38.2965 61.9554 37.8852C62.0029 37.5164 62 37.08 62 36.69H59C59 36.9104 58.9999 37.0787 58.9964 37.2224C58.9929 37.3667 58.9865 37.4511 58.98 37.5017C58.9736 37.5511 58.9714 37.5322 58.992 37.4788C59.0167 37.4151 59.0612 37.3347 59.1293 37.2595L61.3536 39.2725ZM58.8483 40.1727C59.2363 40.1338 59.6708 40.0933 60.0331 40.0093C60.4371 39.9157 60.9398 39.7298 61.3536 39.2725L59.1293 37.2595C59.1973 37.1843 59.2729 37.132 59.3338 37.1011C59.3849 37.0753 59.4039 37.0756 59.3554 37.0869C59.3057 37.0984 59.2223 37.1131 59.0792 37.131C58.9365 37.1488 58.7691 37.1656 58.5498 37.1875L58.8483 40.1727ZM52.9039 40.7671L58.8483 40.1727L58.5498 37.1875L52.6054 37.782L52.9039 40.7671ZM51.4612 40.6464C51.2959 41.0454 50.9528 41.0579 51.2543 40.9821C51.5579 40.9057 52.0365 40.8538 52.9039 40.7671L52.6054 37.782C51.8394 37.8586 51.0928 37.9292 50.5224 38.0727C49.9499 38.2168 49.0839 38.5465 48.6896 39.4983L51.4612 40.6464ZM52.5667 41.5812C52.0147 40.9065 51.7129 40.5314 51.5523 40.2627C51.3927 39.9959 51.6265 40.2474 51.4612 40.6464L48.6896 39.4984C48.2953 40.4502 48.6745 41.2957 48.9775 41.8024C49.2794 42.3072 49.7573 42.8851 50.2448 43.4809L52.5667 41.5812ZM56.3493 46.2044L52.5667 41.5812L50.2448 43.4809L54.0275 48.1041L56.3493 46.2044ZM57.4844 48.6125C57.5151 47.9965 57.2911 47.5096 57.0716 47.1577C56.8748 46.8421 56.5963 46.5063 56.3493 46.2044L54.0275 48.1041C54.167 48.2747 54.2735 48.405 54.3618 48.5185C54.4504 48.6323 54.4989 48.7017 54.526 48.745C54.5523 48.7873 54.5386 48.774 54.5208 48.7196C54.4995 48.6548 54.4831 48.5643 54.4881 48.463L57.4844 48.6125ZM56.1154 50.8956C56.3911 50.6199 56.7017 50.3134 56.9289 50.019C57.1823 49.6906 57.4537 49.2284 57.4844 48.6125L54.4881 48.463C54.4932 48.3617 54.5186 48.2734 54.5461 48.2109C54.5693 48.1586 54.5842 48.1468 54.5538 48.1862C54.5226 48.2266 54.4675 48.2908 54.368 48.3953C54.2688 48.4994 54.1499 48.6184 53.994 48.7743L56.1154 50.8956ZM50.8969 56.1141L56.1154 50.8956L53.994 48.7743L48.7755 53.9928L50.8969 56.1141ZM48.6137 57.4832C49.2296 57.4524 49.6919 57.181 50.0202 56.9277C50.3146 56.7005 50.6211 56.3899 50.8969 56.1141L48.7755 53.9928C48.6197 54.1486 48.5006 54.2676 48.3965 54.3667C48.2921 54.4662 48.2279 54.5214 48.1874 54.5526C48.148 54.583 48.1598 54.568 48.2122 54.5449C48.2746 54.5173 48.363 54.4919 48.4643 54.4869L48.6137 57.4832ZM46.2057 56.3481C46.5075 56.595 46.8434 56.8736 47.1589 57.0704C47.5108 57.2898 47.9978 57.5139 48.6137 57.4832L48.4643 54.4869C48.5656 54.4818 48.656 54.4983 48.7209 54.5195C48.7753 54.5373 48.7885 54.551 48.7463 54.5247C48.7029 54.4977 48.6336 54.4492 48.5197 54.3606C48.4063 54.2723 48.276 54.1658 48.1054 54.0262L46.2057 56.3481ZM41.5814 52.5646L46.2057 56.3481L48.1054 54.0262L43.4811 50.2427L41.5814 52.5646ZM40.6466 51.4591C40.2476 51.6244 39.9961 51.3906 40.2629 51.5502C40.5316 51.7108 40.9067 52.0126 41.5814 52.5646L43.4811 50.2428C42.8853 49.7552 42.3074 49.2773 41.8026 48.9754C41.2959 48.6724 40.4504 48.2932 39.4986 48.6875L40.6466 51.4591ZM40.7673 52.9019C40.854 52.0344 40.9059 51.5558 40.9823 51.2522C41.0581 50.9507 41.0456 51.2938 40.6466 51.4591L39.4986 48.6875C38.5467 49.0818 38.217 49.9478 38.0729 50.5203C37.9294 51.0907 37.8588 51.8373 37.7822 52.6033L40.7673 52.9019ZM40.1727 58.8483L40.7673 52.9018L37.7822 52.6033L37.1875 58.5498L40.1727 58.8483ZM39.2725 61.3536C39.7298 60.9398 39.9157 60.4371 40.0093 60.0331C40.0933 59.6708 40.1338 59.2363 40.1727 58.8483L37.1875 58.5497C37.1656 58.7691 37.1488 58.9365 37.131 59.0792C37.1131 59.2223 37.0984 59.3057 37.0869 59.3554C37.0756 59.4039 37.0753 59.3849 37.1011 59.3338C37.132 59.2729 37.1843 59.1973 37.2595 59.1293L39.2725 61.3536ZM36.69 62C37.08 62 37.5164 62.0029 37.8852 61.9554C38.2965 61.9024 38.8153 61.7674 39.2725 61.3536L37.2595 59.1293C37.3347 59.0612 37.4151 59.0167 37.4788 58.992C37.5322 58.9714 37.5511 58.9736 37.5017 58.98C37.4511 58.9865 37.3667 58.9929 37.2224 58.9964C37.0787 58.9999 36.9104 59 36.69 59V62ZM29.31 62H36.69V59H29.31V62ZM26.7275 61.3536C27.1847 61.7674 27.7035 61.9024 28.1148 61.9554C28.4836 62.0029 28.92 62 29.31 62V59C29.0896 59 28.9213 58.9999 28.7776 58.9964C28.6333 58.9929 28.5489 58.9865 28.4983 58.98C28.4489 58.9736 28.4678 58.9714 28.5212 58.992C28.5849 59.0167 28.6653 59.0612 28.7405 59.1293L26.7275 61.3536ZM25.8273 58.8483C25.8662 59.2363 25.9067 59.6708 25.9907 60.0331C26.0843 60.4371 26.2702 60.9398 26.7275 61.3536L28.7405 59.1293C28.8157 59.1973 28.868 59.2729 28.8989 59.3338C28.9247 59.3849 28.9244 59.4039 28.9131 59.3554C28.9016 59.3057 28.8869 59.2223 28.869 59.0792C28.8512 58.9365 28.8344 58.7691 28.8125 58.5498L25.8273 58.8483ZM25.2328 52.9029L25.8273 58.8483L28.8125 58.5498L28.2179 52.6044L25.2328 52.9029ZM25.3535 51.4602C24.9545 51.2949 24.942 50.9518 25.0178 51.2533C25.0942 51.5569 25.1461 52.0355 25.2328 52.9029L28.2179 52.6044C28.1413 51.8384 28.0707 51.0917 27.9272 50.5214C27.7831 49.9488 27.4534 49.0828 26.5016 48.6886L25.3535 51.4602ZM24.4187 52.5657C25.0934 52.0136 25.4685 51.7119 25.7372 51.5512C26.004 51.3917 25.7525 51.6255 25.3535 51.4602L26.5015 48.6886C25.5497 48.2943 24.7042 48.6735 24.1975 48.9765C23.6927 49.2783 23.1148 49.7563 22.519 50.2438L24.4187 52.5657ZM19.7942 56.3493L24.4187 52.5657L22.519 50.2438L17.8945 54.0275L19.7942 56.3493ZM17.3862 57.4844C18.0021 57.5151 18.4891 57.2911 18.841 57.0716C19.1565 56.8748 19.4924 56.5963 19.7942 56.3493L17.8945 54.0275C17.7239 54.167 17.5936 54.2735 17.4802 54.3618C17.3663 54.4504 17.297 54.4989 17.2536 54.526C17.2114 54.5523 17.2246 54.5386 17.279 54.5208C17.3439 54.4995 17.4343 54.4831 17.5356 54.4881L17.3862 57.4844ZM15.103 56.1154C15.3788 56.3911 15.6853 56.7017 15.9797 56.9289C16.308 57.1823 16.7703 57.4537 17.3862 57.4844L17.5356 54.4881C17.6369 54.4932 17.7253 54.5186 17.7877 54.5461C17.8401 54.5693 17.8519 54.5842 17.8125 54.5538C17.772 54.5226 17.7078 54.4675 17.6034 54.368C17.4993 54.2688 17.3802 54.1499 17.2244 53.994L15.103 56.1154ZM9.88455 50.8969L15.103 56.1154L17.2244 53.994L12.0059 48.7755L9.88455 50.8969ZM8.5155 48.6137C8.54622 49.2296 8.81763 49.6919 9.07099 50.0202C9.29819 50.3146 9.60878 50.6211 9.88455 50.8969L12.0059 48.7755C11.85 48.6197 11.7311 48.5006 11.6319 48.3965C11.5324 48.2921 11.4773 48.2279 11.4461 48.1874C11.4157 48.148 11.4306 48.1598 11.4538 48.2122C11.4814 48.2746 11.5067 48.363 11.5118 48.4643L8.5155 48.6137ZM9.65057 46.2057C9.40361 46.5075 9.12506 46.8434 8.92828 47.1589C8.70885 47.5108 8.48478 47.9978 8.5155 48.6137L11.5118 48.4643C11.5168 48.5656 11.5004 48.656 11.4791 48.7209C11.4613 48.7753 11.4476 48.7885 11.4739 48.7463C11.501 48.7029 11.5495 48.6336 11.6381 48.5197C11.7264 48.4063 11.8329 48.276 11.9724 48.1054L9.65057 46.2057ZM13.4341 41.5813L9.65058 46.2057L11.9724 48.1054L15.756 43.481L13.4341 41.5813ZM14.5396 40.6465C14.3743 40.2475 14.6082 39.996 14.4486 40.2628C14.2879 40.5315 13.9862 40.9066 13.4341 41.5813L15.756 43.481C16.2435 42.8852 16.7215 42.3073 17.0234 41.8025C17.3263 41.2958 17.7055 40.4503 17.3113 39.4984L14.5396 40.6465ZM13.0969 40.7672C13.9644 40.8539 14.4429 40.9058 14.7466 40.9822C15.0481 41.058 14.7049 41.0455 14.5396 40.6465L17.3113 39.4984C16.917 38.5466 16.051 38.2168 15.4785 38.0728C14.9081 37.9293 14.1615 37.8587 13.3954 37.7821L13.0969 40.7672ZM7.15174 40.1727L13.0969 40.7672L13.3954 37.7821L7.45025 37.1875L7.15174 40.1727ZM4.64637 39.2725C5.06018 39.7298 5.56294 39.9156 5.96694 40.0093C6.32922 40.0933 6.76367 40.1338 7.15174 40.1727L7.45025 37.1875C7.23093 37.1656 7.06349 37.1488 6.92083 37.131C6.77768 37.1131 6.69433 37.0984 6.64457 37.0869C6.5961 37.0756 6.61513 37.0753 6.6662 37.1011C6.72709 37.132 6.80266 37.1843 6.87072 37.2595L4.64637 39.2725ZM4 36.69C4 37.08 3.99709 37.5163 4.04462 37.8852C4.09763 38.2965 4.23256 38.8153 4.64637 39.2725L6.87072 37.2595C6.93879 37.3347 6.98331 37.4151 7.00795 37.4788C7.02861 37.5322 7.02637 37.5511 7.02001 37.5017C7.01348 37.4511 7.00711 37.3667 7.00359 37.2224C7.00009 37.0787 7 36.9104 7 36.69H4ZM4 29.31V36.69H7V29.31H4ZM4.64637 26.7275C4.23257 27.1847 4.09763 27.7035 4.04462 28.1148C3.99709 28.4836 4 28.92 4 29.31H7C7 29.0896 7.00009 28.9213 7.00359 28.7776C7.00711 28.6333 7.01348 28.5489 7.02001 28.4983C7.02637 28.4489 7.02861 28.4678 7.00795 28.5212C6.98331 28.5849 6.93879 28.6653 6.87073 28.7405L4.64637 26.7275ZM7.15171 25.8273C6.76366 25.8661 6.32921 25.9067 5.96693 25.9907C5.56293 26.0843 5.06017 26.2702 4.64637 26.7275L6.87073 28.7405C6.80267 28.8157 6.72709 28.868 6.6662 28.8988C6.61514 28.9247 6.5961 28.9244 6.64457 28.9131C6.69433 28.9016 6.77767 28.8869 6.92082 28.869C7.06348 28.8512 7.23092 28.8344 7.45023 28.8125L7.15171 25.8273ZM7.30099 25.8199H7.30097V28.8199H7.30099V25.8199ZM13.0979 25.2327L7.15174 25.8273L7.45025 28.8125L13.3965 28.2178L13.0979 25.2327ZM14.5407 25.3534C14.706 24.9544 15.0491 24.9419 14.7476 25.0177C14.444 25.0941 13.9654 25.146 13.0979 25.2327L13.3965 28.2178C14.1625 28.1412 14.9091 28.0706 15.4795 27.9271C16.052 27.783 16.918 27.4533 17.3123 26.5015L14.5407 25.3534ZM13.4352 24.4186C13.9872 25.0933 14.2889 25.4684 14.4496 25.7371C14.6092 26.0039 14.3754 25.7524 14.5407 25.3534L17.3123 26.5015C17.7066 25.5496 17.3274 24.7041 17.0244 24.1974C16.7225 23.6926 16.2446 23.1147 15.757 22.5189L13.4352 24.4186ZM9.6507 19.7931L13.4352 24.4186L15.757 22.5189L11.9726 17.8934L9.6507 19.7931ZM8.51563 17.3851C8.48491 18.001 8.70898 18.4879 8.92841 18.8398C9.12518 19.1554 9.40374 19.4913 9.6507 19.7931L11.9726 17.8934C11.833 17.7228 11.7265 17.5925 11.6382 17.4791C11.5496 17.3652 11.5011 17.2959 11.4741 17.2525C11.4477 17.2103 11.4614 17.2235 11.4793 17.2779C11.5005 17.3428 11.517 17.4332 11.5119 17.5345L8.51563 17.3851ZM9.88468 15.1019C9.60891 15.3777 9.29831 15.6842 9.07112 15.9786C8.81776 16.3069 8.54634 16.7691 8.51563 17.3851L11.5119 17.5345C11.5068 17.6358 11.4815 17.7242 11.4539 17.7866C11.4307 17.8389 11.4158 17.8507 11.4462 17.8113C11.4774 17.7709 11.5326 17.7067 11.6321 17.6023C11.7312 17.4981 11.8501 17.3791 12.006 17.2232L9.88468 15.1019ZM15.1032 9.88343L9.88468 15.1019L12.006 17.2232L17.2245 12.0048L15.1032 9.88343ZM17.3863 8.51438C16.7704 8.5451 16.3082 8.81651 15.9798 9.06987C15.6854 9.29707 15.3789 9.60766 15.1032 9.88343L17.2245 12.0048C17.3803 11.8489 17.4994 11.73 17.6035 11.6308C17.708 11.5313 17.7721 11.4762 17.8126 11.4449C17.852 11.4145 17.8402 11.4295 17.7878 11.4526C17.7254 11.4802 17.6371 11.5056 17.5358 11.5107L17.3863 8.51438ZM19.7944 9.64945C19.4925 9.40249 19.1567 9.12394 18.8411 8.92716C18.4892 8.70773 18.0022 8.48366 17.3863 8.51438L17.5358 11.5107C17.4344 11.5157 17.344 11.4993 17.2792 11.478C17.2248 11.4602 17.2115 11.4465 17.2538 11.4728C17.2971 11.4998 17.3665 11.5484 17.4803 11.637C17.5938 11.7253 17.7241 11.8318 17.8947 11.9713L19.7944 9.64945ZM24.4188 13.4331L19.7944 9.64945L17.8947 11.9713L22.5191 15.7549L24.4188 13.4331ZM25.3536 14.5386C25.7527 14.3733 26.0041 14.6071 25.7373 14.4475C25.4686 14.2869 25.0935 13.9851 24.4188 13.4331L22.5191 15.7549C23.1149 16.2425 23.6928 16.7204 24.1976 17.0223C24.7043 17.3253 25.5498 17.7045 26.5017 17.3102L25.3536 14.5386ZM25.2329 13.0959C25.1462 13.9633 25.0943 14.4419 25.0179 14.7455C24.9421 15.047 24.9546 14.7039 25.3536 14.5386L26.5017 17.3102C27.4535 16.9159 27.7833 16.0499 27.9273 15.4774C28.0708 14.907 28.1414 14.1604 28.218 13.3944L25.2329 13.0959ZM25.8273 7.15174L25.2329 13.0959L28.218 13.3944L28.8125 7.45025L25.8273 7.15174ZM26.7275 4.64637C26.2702 5.06018 26.0843 5.56294 25.9907 5.96694C25.9067 6.32922 25.8662 6.76367 25.8273 7.15174L28.8125 7.45025C28.8344 7.23093 28.8512 7.06349 28.869 6.92083C28.8869 6.77768 28.9016 6.69433 28.9131 6.64457C28.9244 6.5961 28.9247 6.61513 28.8989 6.6662C28.868 6.72709 28.8157 6.80266 28.7405 6.87072L26.7275 4.64637ZM29.31 4C28.92 4 28.4836 3.99709 28.1148 4.04462C27.7035 4.09763 27.1847 4.23256 26.7275 4.64637L28.7405 6.87073C28.6653 6.93879 28.5849 6.98331 28.5212 7.00795C28.4678 7.02861 28.4489 7.02637 28.4983 7.02001C28.5489 7.01348 28.6333 7.00711 28.7776 7.00359C28.9213 7.00009 29.0896 7 29.31 7V4ZM36.69 4H29.31V7H36.69V4ZM39.2725 4.64637C38.8153 4.23256 38.2965 4.09763 37.8852 4.04462C37.5164 3.99709 37.08 4 36.69 4V7C36.9104 7 37.0787 7.00009 37.2224 7.00359C37.3667 7.00711 37.4511 7.01348 37.5017 7.02001C37.5511 7.02637 37.5322 7.02861 37.4788 7.00795C37.4151 6.98331 37.3347 6.93879 37.2595 6.87072L39.2725 4.64637ZM42.5 33C42.5 38.2467 38.2467 42.5 33 42.5V45.5C39.9036 45.5 45.5 39.9036 45.5 33H42.5ZM33 23.5C38.2467 23.5 42.5 27.7533 42.5 33H45.5C45.5 26.0964 39.9036 20.5 33 20.5V23.5ZM23.5 33C23.5 27.7533 27.7533 23.5 33 23.5V20.5C26.0964 20.5 20.5 26.0964 20.5 33H23.5ZM33 42.5C27.7533 42.5 23.5 38.2467 23.5 33H20.5C20.5 39.9036 26.0964 45.5 33 45.5V42.5Z" fill="#33363F"/>
</svg>
