<svg width="25" height="25" viewBox="0 0 25 25" fill="none" xmlns="http://www.w3.org/2000/svg">
<path d="M12.7258 0.58667C6.23494 0.58667 0.975952 5.84566 0.975952 12.3365C0.975952 18.8273 6.23494 24.0863 12.7258 24.0863C19.2166 24.0863 24.4756 18.8273 24.4756 12.3365C24.4756 5.84566 19.2166 0.58667 12.7258 0.58667ZM12.7258 5.13498C15.0284 5.13498 16.8951 7.00169 16.8951 9.30427C16.8951 11.6069 15.0284 13.4736 12.7258 13.4736C10.4232 13.4736 8.55648 11.6069 8.55648 9.30427C8.55648 7.00169 10.4232 5.13498 12.7258 5.13498ZM12.7258 21.4331C9.94466 21.4331 7.45256 20.1729 5.78485 18.2019C6.67556 16.5247 8.41908 15.3687 10.4516 15.3687C10.5653 15.3687 10.679 15.3876 10.788 15.4208C11.4039 15.6198 12.0483 15.7477 12.7258 15.7477C13.4033 15.7477 14.0524 15.6198 14.6635 15.4208C14.7725 15.3876 14.8862 15.3687 14.9999 15.3687C17.0325 15.3687 18.776 16.5247 19.6667 18.2019C17.999 20.1729 15.5069 21.4331 12.7258 21.4331Z" fill="#222A31"/>
</svg>
